<?xml version="1.0" standalone="no"?>
<!DOCTYPE svg PUBLIC "-//W3C//DTD SVG 20010904//EN"
 "http://www.w3.org/TR/2001/REC-SVG-20010904/DTD/svg10.dtd">
<svg version="1.0" xmlns="http://www.w3.org/2000/svg"
 width="901.000000pt" height="901.000000pt" viewBox="0 0 901.000000 901.000000"
 preserveAspectRatio="xMidYMid meet">
<metadata>
Created by potrace 1.14, written by Peter Selinger 2001-2017
</metadata>
<g transform="translate(0.000000,901.000000) scale(0.100000,-0.100000)"
fill="#000000" stroke="none">
<path d="M3705 8890 c-4 -6 -17 -42 -29 -80 l-23 -70 43 -117 c24 -65 43 -127
44 -138 0 -11 7 -31 16 -43 16 -23 64 -138 64 -154 0 -4 -13 -5 -30 -1 -16 3
-30 1 -30 -4 0 -10 34 -41 65 -59 11 -6 28 -22 39 -37 16 -22 18 -31 9 -49
-20 -42 -22 -56 -7 -77 8 -11 26 -21 38 -21 32 0 42 -39 16 -57 -11 -8 -20
-23 -20 -33 0 -21 36 -50 62 -50 20 0 38 -28 31 -48 -3 -7 3 -22 13 -33 9 -10
13 -19 9 -19 -5 0 -4 -5 3 -12 7 -7 12 -18 12 -26 0 -8 6 -28 14 -45 8 -18 31
-75 51 -127 20 -52 40 -104 45 -115 5 -11 25 -63 45 -115 82 -212 147 -377
160 -410 7 -19 25 -66 40 -105 14 -38 42 -107 61 -152 19 -45 34 -85 34 -88 0
-4 6 -21 14 -38 8 -18 38 -93 67 -167 29 -74 65 -169 81 -210 16 -41 33 -86
38 -100 5 -14 23 -59 40 -100 18 -41 45 -111 62 -155 16 -44 36 -87 43 -96 11
-12 12 -23 5 -50 -6 -18 -10 -62 -10 -95 l0 -62 -40 -16 c-21 -8 -47 -27 -56
-41 -18 -28 -30 -31 -53 -12 -20 17 -74 38 -176 70 -128 40 -205 52 -277 41
-35 -5 -92 -7 -128 -3 -39 4 -50 7 -28 7 76 4 44 19 -55 28 -242 21 -336 -2
-450 -106 -69 -63 -115 -151 -130 -250 -14 -83 -21 -88 -119 -72 -35 6 -124
14 -198 17 -74 3 -146 8 -160 11 -25 5 -25 4 5 -20 37 -31 25 -34 -22 -5 -31
19 -44 21 -116 16 -77 -6 -80 -6 -52 8 17 9 22 13 12 10 -11 -3 -32 5 -49 16
l-30 22 23 13 c13 7 33 11 44 8 11 -2 -2 7 -30 21 -52 27 -99 32 -150 18 -36
-11 -68 -6 -59 9 5 8 -6 9 -34 6 -35 -5 -45 -2 -66 18 l-24 25 -27 -25 -26
-24 43 6 c40 5 42 4 28 -12 -8 -10 -16 -13 -18 -8 -2 7 -16 6 -42 -3 -24 -8
-42 -10 -45 -4 -4 5 -9 9 -13 9 -13 0 -43 -88 -51 -145 -9 -66 -14 -72 -83
-101 -29 -12 -54 -28 -57 -35 -2 -8 2 -10 13 -6 9 4 16 2 16 -3 0 -6 -7 -10
-15 -10 -22 0 -8 -22 34 -52 23 -16 58 -30 90 -34 64 -8 105 -38 96 -68 -3
-11 -14 -52 -23 -90 l-17 -70 -80 -33 c-44 -17 -92 -32 -107 -33 -16 0 -28 -4
-28 -10 0 -5 15 -10 34 -10 19 0 37 -4 40 -8 3 -5 -21 -5 -52 -1 -120 15 -214
18 -234 8 -16 -8 -23 -8 -29 2 -5 8 -9 10 -9 4 0 -5 -13 -10 -30 -11 -16 -1
-27 3 -24 7 3 5 16 9 29 9 13 0 27 4 30 10 8 13 156 13 189 0 17 -6 26 -6 26
0 0 11 -22 16 -100 24 -30 4 -94 14 -142 23 -104 20 -227 10 -299 -25 -89 -43
-171 -126 -211 -214 -21 -46 -40 -155 -34 -200 8 -63 19 -113 33 -147 8 -18
12 -35 9 -38 -4 -5 -157 302 -332 667 -194 404 -309 625 -325 622 -11 -1 -33
34 -77 125 -33 71 -108 226 -166 346 -58 119 -106 219 -106 222 0 2 -30 66
-66 140 -36 75 -64 138 -62 140 4 4 19 -25 83 -155 53 -108 106 -205 99 -180
-7 25 -123 267 -250 525 -39 77 -67 149 -71 176 -3 25 -14 57 -24 70 -18 24
-19 21 -19 -167 l0 -191 34 -84 c19 -46 51 -122 71 -169 20 -47 40 -96 45
-110 7 -22 36 -91 60 -145 5 -11 25 -58 44 -105 19 -47 55 -134 81 -195 26
-60 49 -119 52 -130 8 -29 24 -46 36 -38 6 3 7 1 3 -6 -4 -6 -4 -26 -1 -43 7
-30 8 -31 21 -13 15 21 19 13 6 -13 -6 -11 -3 -26 5 -42 l15 -25 -6 30 c-4 22
2 15 19 -23 14 -28 45 -89 71 -133 27 -48 44 -89 41 -100 -3 -12 -1 -17 6 -12
6 4 8 0 4 -10 -3 -9 -2 -16 4 -14 6 1 25 -26 43 -61 18 -34 36 -59 39 -55 4 3
3 11 -1 17 -5 6 -14 30 -22 53 -7 24 -16 43 -20 43 -4 0 -10 18 -14 41 -4 22
-14 51 -22 65 -9 13 -12 24 -8 24 5 0 1 5 -9 11 -9 6 -14 16 -11 22 4 7 4 9
-1 5 -4 -4 -14 -1 -21 7 -16 15 -19 29 -5 21 5 -4 7 3 4 14 -3 12 0 20 6 20 7
0 9 5 5 11 -4 8 -12 3 -20 -12 -18 -33 -18 -5 1 30 8 16 11 32 7 36 -4 3 -16
34 -27 68 -11 33 -26 63 -32 65 -20 6 -15 -27 7 -55 11 -14 20 -33 20 -42 0
-10 5 -22 11 -28 6 -6 9 -17 7 -24 -5 -15 -54 61 -50 79 4 16 -15 16 -21 0 -2
-7 -3 -5 -1 5 2 16 -6 51 -23 97 -3 8 -7 21 -9 28 -1 8 -10 22 -19 32 -10 11
-12 20 -6 24 5 4 17 -6 26 -21 17 -30 16 -21 -6 40 -14 40 -25 47 -32 20 -2
-10 -2 -4 0 14 2 19 -6 56 -21 92 -33 80 -7 70 29 -12 15 -34 74 -156 130
-272 57 -115 119 -247 139 -293 20 -46 68 -144 106 -218 39 -75 70 -142 70
-150 0 -8 5 -14 10 -14 6 0 10 -5 10 -11 0 -5 10 -31 22 -57 12 -26 22 -49 23
-52 1 -3 29 -62 63 -131 34 -69 62 -129 62 -132 0 -3 20 -49 45 -102 24 -52
44 -98 44 -102 -1 -3 5 -9 13 -14 10 -6 10 -14 1 -39 -7 -17 -9 -38 -6 -46 3
-8 0 -14 -6 -14 -6 0 -11 -7 -11 -15 0 -8 -5 -15 -11 -15 -5 0 -7 5 -4 10 3 6
2 10 -3 10 -6 0 -12 -7 -16 -15 -3 -8 -12 -15 -20 -15 -10 0 -13 -6 -10 -15
10 -24 -13 -17 -35 11 -11 14 -25 23 -31 19 -5 -3 -10 2 -10 12 -1 10 -9 36
-20 58 -11 22 -19 44 -20 48 0 5 -6 23 -14 40 -8 18 -26 61 -41 97 -15 36 -32
75 -37 86 -6 12 -7 32 -3 45 5 18 4 20 -4 9 -8 -12 -12 -9 -21 15 -6 17 -19
48 -29 70 -44 96 -51 114 -51 124 0 6 -11 35 -25 65 -14 30 -25 60 -25 65 0 6
-4 11 -9 11 -14 0 -22 49 -12 69 7 13 6 23 -5 37 -15 18 -15 18 -6 -1 5 -11 7
-26 5 -33 -8 -22 -34 38 -28 62 5 15 4 17 -3 7 -8 -10 -11 -6 -17 18 -3 17
-11 31 -17 31 -6 0 -8 9 -5 20 3 11 1 18 -4 14 -5 -3 -9 2 -9 10 0 8 -4 18
-10 21 -10 6 10 -58 34 -110 29 -62 223 -538 253 -620 8 -22 18 -44 22 -50 5
-5 14 -28 21 -50 7 -22 16 -44 20 -50 15 -22 42 -107 37 -119 -3 -7 1 -46 9
-86 7 -40 11 -77 8 -81 -3 -5 -21 -9 -40 -9 -29 0 -204 -61 -289 -100 -11 -5
-38 -16 -60 -23 -30 -10 -461 -184 -583 -234 -9 -4 -12 -161 -12 -735 l0 -730
28 7 c15 4 65 15 112 25 256 54 604 131 610 135 4 2 20 -9 36 -26 16 -17 45
-37 64 -45 47 -19 63 -46 49 -78 -10 -21 -7 -29 17 -61 27 -36 29 -36 38 -16
5 11 12 21 16 21 4 0 57 -66 118 -147 84 -113 126 -159 176 -196 35 -26 94
-83 131 -127 68 -83 116 -114 185 -123 45 -5 73 8 93 43 38 63 17 154 -59 255
-29 40 -65 99 -79 132 -42 95 -53 111 -187 276 -71 87 -131 164 -134 172 -4 8
7 17 28 23 33 11 396 90 452 99 16 3 40 9 53 14 49 19 69 12 79 -28 5 -20 15
-38 23 -41 10 -3 12 6 6 45 l-6 49 83 16 c46 10 171 35 278 57 203 42 240 47
240 32 0 -19 88 -41 181 -45 l96 -4 64 -46 c204 -148 270 -200 319 -251 30
-31 47 -53 38 -49 -11 3 -18 1 -18 -6 0 -6 -5 -8 -11 -4 -8 4 -7 9 2 15 7 4
10 11 6 15 -3 4 -13 1 -22 -6 -9 -7 -15 -8 -15 -2 0 6 4 12 9 14 5 2 3 12 -5
23 -15 19 -16 19 -29 1 -13 -16 -9 -23 36 -69 43 -44 48 -52 33 -60 -12 -7
-13 -11 -4 -17 22 -13 4 -38 -23 -33 -19 4 -26 -1 -34 -24 -6 -15 -10 -41 -9
-56 3 -32 26 -53 38 -34 4 6 10 8 14 4 4 -4 0 -15 -9 -24 -8 -10 -15 -29 -15
-43 2 -40 -11 -170 -17 -180 -3 -5 -13 -6 -21 -3 -13 5 -15 1 -10 -14 8 -24
-45 -79 -67 -70 -23 9 -97 -67 -97 -98 0 -17 -6 -25 -17 -25 -17 -1 -17 -1 -1
-14 14 -10 15 -15 5 -25 -12 -12 -13 -15 -15 -68 -1 -21 -7 -33 -16 -33 -14 0
-16 -46 -2 -68 5 -8 -5 -12 -34 -12 -25 0 -43 -5 -46 -14 -4 -9 -17 -12 -45
-9 -38 5 -40 4 -31 -14 9 -15 6 -22 -11 -33 -12 -8 -24 -15 -27 -15 -36 -9
-60 -19 -60 -25 0 -4 -16 -24 -36 -43 -36 -35 -36 -35 -15 -47 18 -9 20 -14
11 -25 -16 -19 -3 -80 13 -67 7 5 34 15 61 21 40 10 51 10 57 -1 5 -8 3 -14
-5 -16 -17 -4 -28 -40 -15 -48 6 -3 5 -11 -2 -20 -9 -11 -9 -17 0 -28 8 -10 9
-16 1 -21 -5 -3 -10 1 -10 9 0 8 -8 20 -17 25 -15 9 -16 12 -4 20 18 12 5 31
-22 31 -12 0 -17 -4 -12 -8 6 -4 12 -16 13 -27 2 -11 10 -24 18 -28 20 -11 18
-44 -3 -56 -24 -14 2 -14 28 -1 21 12 89 3 89 -11 0 -5 -8 -5 -17 -2 -16 6
-16 5 -4 -11 22 -27 56 -17 54 16 -2 32 20 43 50 26 22 -13 22 -13 -6 -16 -15
-2 -25 -7 -22 -12 3 -5 13 -6 22 -3 15 6 16 5 3 -9 -8 -9 -19 -15 -25 -15 -5
1 -10 -6 -10 -16 0 -10 -5 -21 -10 -25 -9 -6 -10 -15 -6 -59 2 -20 41 -16 41
5 1 12 5 9 16 -10 8 -16 17 -28 19 -28 3 0 2 12 -1 28 -2 15 0 34 5 42 9 13
14 12 33 -8 l23 -23 -22 -19 c-24 -19 -30 -40 -13 -40 6 0 10 4 10 9 0 12 84
-5 88 -18 2 -6 9 -11 16 -11 13 0 46 -31 46 -42 0 -4 -9 -4 -20 -1 -15 4 -20
0 -20 -17 0 -16 4 -20 19 -15 26 8 37 -33 13 -51 -15 -12 -14 -13 10 -14 15 0
30 -5 33 -10 3 -6 15 -10 26 -10 24 0 25 -27 2 -52 -11 -12 -12 -18 -3 -18 8
0 11 -9 7 -26 -4 -24 -3 -26 25 -20 17 3 39 6 49 6 33 0 21 19 -16 26 -23 4
-35 12 -35 23 0 10 3 12 8 5 10 -16 57 -12 56 4 -2 30 -5 33 -24 27 -14 -5
-20 -2 -20 9 0 22 21 19 51 -7 21 -19 25 -30 21 -59 -3 -28 -9 -38 -26 -41
-12 -2 -5 -5 16 -6 41 -1 53 11 50 52 -2 24 1 27 22 24 26 -3 48 -17 28 -17
-7 0 -12 -7 -12 -15 0 -8 -4 -15 -10 -15 -5 0 -10 -5 -10 -11 0 -6 8 -8 19 -4
11 3 23 0 27 -6 5 -9 2 -10 -9 -6 -18 7 -24 -8 -7 -18 6 -4 8 -11 4 -16 -10
-17 26 -50 45 -40 17 10 23 11 47 11 14 0 15 2 3 17 -11 13 -11 17 -1 20 21 8
13 33 -10 34 -18 1 -19 2 -5 6 13 3 16 10 12 24 -4 11 -2 26 5 33 11 14 9 94
-4 114 -18 30 24 96 46 74 9 -9 9 -12 -1 -12 -7 0 -9 -4 -6 -10 4 -6 13 -5 25
2 10 7 17 15 14 19 -8 14 37 58 66 64 33 7 38 25 14 50 -12 12 -19 13 -24 5
-5 -8 -9 -7 -14 5 -9 25 -8 27 16 20 18 -4 17 -2 -5 10 -46 27 -62 87 -30 112
13 10 21 8 41 -12 14 -14 29 -25 33 -25 5 0 9 -8 9 -17 1 -27 30 -55 85 -83
28 -14 60 -36 72 -49 13 -13 33 -24 45 -25 26 -1 70 -60 61 -82 -3 -8 0 -14 7
-14 6 0 8 5 5 10 -4 6 6 10 24 10 25 0 29 -3 24 -17 -6 -15 -4 -16 9 -5 12 10
18 10 27 -2 6 -8 11 -18 10 -22 -4 -21 2 -26 16 -14 9 7 18 10 22 6 4 -3 -1
-12 -11 -19 -14 -11 -15 -15 -3 -31 13 -18 15 -17 40 10 15 16 27 24 27 18 0
-5 -5 -15 -11 -21 -16 -16 -3 -45 18 -42 30 5 65 -12 59 -27 -3 -8 1 -14 8
-14 7 0 18 -11 24 -25 10 -21 16 -24 39 -19 16 4 33 13 39 20 6 8 16 14 21 14
6 0 17 10 25 22 12 18 18 20 29 11 8 -7 20 -9 26 -5 14 9 71 7 94 -3 10 -3 20
-2 23 4 4 6 -4 13 -18 17 -14 3 -30 12 -37 20 -9 11 -7 14 12 15 13 1 35 0 48
-1 14 -1 21 2 17 9 -4 6 -14 11 -23 11 -14 0 -14 2 1 19 32 35 93 31 79 -5 -3
-8 0 -14 6 -14 7 0 14 7 18 15 3 9 18 22 34 31 37 18 36 26 -1 42 -35 16 -40
50 -12 75 24 22 32 21 32 -2 0 -11 5 -23 10 -26 6 -4 10 5 10 19 0 22 5 26 33
28 17 1 45 1 60 0 16 -1 26 2 22 7 -3 6 9 8 30 4 23 -4 35 -2 35 6 0 7 -7 11
-16 9 -10 -2 -19 3 -21 10 -4 9 6 11 39 6 59 -8 70 -12 63 -24 -3 -5 3 -10 14
-10 12 0 21 -6 21 -12 0 -9 3 -9 9 1 8 12 12 12 25 2 20 -17 10 -34 -15 -28
-14 4 -19 0 -19 -14 0 -12 7 -19 20 -19 11 0 20 5 20 10 0 6 9 10 20 10 12 0
20 6 19 12 -1 7 -1 22 0 33 2 18 4 17 14 -5 6 -14 16 -28 22 -32 15 -12 55 -9
55 3 0 7 11 8 30 4 25 -6 31 -3 41 19 7 14 17 26 22 26 5 0 7 14 3 32 -5 25
-4 30 5 21 18 -18 54 3 38 23 -6 8 -10 14 -8 15 2 0 12 2 23 4 25 5 39 20 43
47 2 12 10 34 17 49 12 23 12 32 0 53 -14 28 -7 34 15 14 11 -11 13 -10 8 4
-3 9 -1 19 6 22 7 2 3 5 -7 5 -19 1 -19 2 2 21 12 11 27 20 34 20 8 1 5 6 -6
15 -16 12 -17 15 -4 15 9 0 24 3 34 7 11 4 15 3 11 -5 -9 -13 13 -62 27 -62 6
0 16 4 22 8 16 10 -1 52 -21 52 -8 0 -15 9 -15 21 0 11 -4 18 -9 15 -5 -3 -12
1 -15 10 -5 13 -15 15 -52 9 -32 -4 -44 -3 -39 4 3 6 2 11 -3 11 -6 0 -12 -7
-16 -15 -3 -9 -15 -14 -28 -11 -13 1 -35 0 -49 -4 -22 -7 -29 -4 -38 14 -11
20 -11 20 -5 -3 5 -21 3 -23 -16 -18 -20 5 -21 4 -6 -18 10 -15 12 -26 6 -30
-10 -6 -59 24 -60 38 0 4 -8 7 -19 7 -10 0 -21 9 -24 20 -6 22 7 27 20 8 12
-19 21 41 11 76 -9 34 -3 45 14 28 15 -15 58 -16 58 -2 0 9 -28 15 -52 11 -11
-1 -45 52 -52 84 -4 17 -14 37 -22 46 -13 15 -12 17 11 23 29 7 32 21 8 35
-15 8 -16 12 -5 22 19 20 15 38 -9 32 -18 -5 -17 -2 8 23 15 16 31 29 35 29
15 0 20 15 5 15 -10 0 -17 8 -17 20 0 13 5 18 15 14 11 -5 15 1 15 20 0 14 -4
26 -10 26 -5 0 -10 -4 -10 -10 0 -16 -33 -11 -68 10 -31 19 -33 24 -29 65 2
32 10 50 24 60 23 16 38 9 22 -11 -7 -9 -6 -19 3 -33 7 -12 15 -21 18 -21 8 0
4 75 -4 88 -3 5 14 13 39 17 26 3 43 11 39 16 -3 5 -14 7 -25 4 -17 -6 -19 -3
-14 18 5 20 2 26 -19 31 -28 7 -59 -16 -71 -53 -3 -11 -12 -20 -18 -18 -7 1
-12 -5 -12 -13 0 -8 -8 -18 -17 -22 -19 -8 -25 -28 -8 -28 6 0 10 -5 10 -12 0
-8 -6 -6 -17 4 -12 13 -14 20 -5 31 17 21 3 55 -31 72 -38 19 -37 19 -38 -7
-1 -22 -1 -22 -8 2 -4 14 -4 30 1 36 6 8 -4 18 -29 30 -25 13 -37 25 -37 37 1
10 -8 29 -20 42 -16 18 -21 33 -18 55 3 22 0 30 -11 30 -12 0 -27 19 -27 36 0
9 36 3 62 -10 14 -8 43 -19 65 -26 36 -12 135 -51 178 -70 64 -29 116 -51 151
-63 53 -20 263 -110 353 -153 85 -40 208 -113 266 -157 70 -54 431 -353 463
-384 8 -7 23 -18 35 -24 12 -6 -8 17 -45 53 -38 35 -68 68 -68 74 0 5 -9 17
-20 27 -11 9 -20 25 -20 34 1 16 2 16 12 -2 6 -11 21 -28 32 -38 12 -10 21
-22 21 -27 0 -4 25 -32 57 -61 31 -30 59 -64 63 -76 3 -13 9 -23 13 -23 6 0
35 -22 82 -62 8 -7 20 -12 26 -10 7 1 16 -3 20 -9 5 -8 3 -9 -6 -4 -8 5 -11 4
-6 -3 4 -6 13 -9 21 -5 10 3 15 -1 15 -13 0 -37 191 -160 410 -266 165 -79
167 -80 235 -103 28 -9 57 -20 65 -24 13 -7 164 -46 308 -81 147 -35 487 -55
503 -29 4 7 9 8 13 1 3 -5 -1 -13 -10 -16 -9 -4 -14 -9 -11 -13 8 -8 -12 -33
-26 -33 -7 0 -7 4 1 12 7 7 12 16 12 22 0 18 -29 -29 -30 -47 0 -10 -4 -15
-10 -12 -16 10 -12 -5 7 -23 16 -16 16 -16 10 1 -4 11 -2 17 8 17 8 0 15 7 15
15 0 8 9 15 20 15 11 0 20 -4 20 -10 0 -5 7 -10 15 -10 8 0 15 6 15 13 0 8 4
7 11 -3 8 -12 9 -12 7 5 -3 27 9 45 32 45 13 0 17 7 16 25 0 14 -7 25 -14 25
-7 0 -10 5 -7 10 10 17 45 12 39 -5 -4 -8 -1 -15 5 -15 6 0 11 8 11 18 0 10 6
27 14 37 8 11 11 26 8 33 -4 12 2 14 31 8 43 -8 55 6 33 40 -15 22 -15 25 -1
30 23 9 45 -3 45 -24 0 -20 14 -22 55 -8 11 4 24 6 29 6 5 -1 12 4 16 10 5 9
10 6 15 -9 3 -11 10 -21 15 -21 9 0 43 32 70 65 14 17 13 18 -2 12 -10 -3 -18
-2 -18 4 0 6 9 13 20 16 11 3 20 12 20 20 0 13 -3 13 -15 3 -8 -7 -15 -9 -16
-4 0 5 -2 19 -3 31 -2 14 5 25 21 32 13 6 23 16 23 23 0 21 -17 41 -28 34 -6
-3 -13 -2 -17 3 -3 6 -12 8 -20 4 -9 -3 -15 1 -15 10 0 8 -10 17 -22 20 -27 7
-36 1 -20 -15 32 -32 -12 -96 -64 -94 -50 2 -78 51 -46 84 16 18 15 32 -3 32
-8 0 -15 6 -15 14 0 23 43 24 68 2 20 -18 24 -18 32 -6 6 8 7 21 5 29 -3 8 2
22 11 32 9 10 14 24 11 31 -3 8 -6 6 -6 -6 -1 -12 -6 -16 -17 -12 -9 3 -18 6
-20 6 -2 0 -4 7 -4 15 0 11 -11 15 -35 15 -22 0 -38 6 -41 15 -8 20 -24 19
-24 -1 0 -9 9 -18 20 -21 21 -6 27 -28 10 -38 -6 -4 -8 -11 -5 -16 4 -5 -1
-17 -10 -26 -9 -9 -14 -24 -12 -34 3 -10 -2 -20 -11 -24 -17 -6 -15 -8 -32 24
-12 24 -13 24 -26 6 -8 -10 -14 -15 -15 -9 0 5 -7 -7 -14 -26 l-13 -35 -1 43
c-1 31 3 42 14 42 21 0 19 18 -2 22 -14 2 -21 20 -29 73 -10 62 -11 51 -7 -95
6 -180 -5 -314 -30 -373 -16 -36 -17 -37 -36 -20 -23 19 -19 35 7 27 13 -4 11
-1 -5 13 -16 14 -62 129 -68 173 0 3 -6 14 -12 25 -5 11 -20 47 -31 81 -18 51
-58 144 -104 241 -6 11 -8 25 -4 31 3 5 -3 19 -13 31 -11 12 -22 39 -26 60 -3
22 -16 49 -27 60 -11 12 -25 39 -30 59 -6 20 -19 49 -30 64 -11 16 -17 28 -14
28 3 0 0 14 -5 30 -6 17 -15 30 -20 30 -5 0 -9 14 -9 30 0 17 -5 30 -11 30 -5
0 -15 14 -20 30 -6 17 -15 30 -19 30 -4 0 -8 10 -8 23 0 39 -26 111 -47 129
-14 12 -16 20 -9 25 8 6 1 29 -22 78 -19 39 -34 75 -34 81 0 5 -10 21 -22 34
-13 14 -22 29 -20 33 1 5 -6 16 -16 26 -17 14 -35 44 -87 142 -5 11 -16 17
-22 14 -7 -2 -13 3 -13 11 0 9 -22 42 -50 74 -27 31 -47 60 -44 63 3 3 -3 10
-13 16 -11 5 -32 28 -48 50 -15 23 -34 41 -41 41 -8 0 -14 11 -14 25 0 14 -9
34 -20 45 -11 11 -15 20 -9 20 6 0 9 5 7 11 -2 6 -21 13 -42 15 -21 2 -41 6
-45 10 -3 4 26 4 65 1 53 -4 92 -15 159 -46 96 -45 95 -44 95 -33 0 4 -14 15
-30 24 -17 10 -29 22 -28 27 5 17 -36 71 -50 66 -7 -3 -10 0 -7 6 5 8 -60 107
-84 129 -3 3 -26 32 -51 65 -24 33 -70 89 -101 125 -31 36 -66 81 -77 99 -13
21 -22 28 -25 19 -4 -9 -13 -5 -32 16 -28 31 -27 48 2 25 10 -7 -5 11 -33 41
-28 31 -62 73 -77 95 -36 57 -314 337 -365 369 -25 16 -51 25 -60 21 -8 -3
-19 0 -24 7 -7 10 -9 9 -5 -2 2 -8 13 -15 24 -16 25 -1 72 -35 73 -51 0 -7 5
-13 11 -13 6 0 9 -6 6 -14 -4 -10 0 -12 14 -9 11 3 19 0 19 -6 0 -7 4 -10 9
-7 5 3 11 -3 14 -13 4 -17 2 -17 -22 -5 -14 8 -32 14 -38 14 -7 0 -18 9 -25
20 -7 11 -16 20 -21 20 -4 0 0 -11 9 -25 25 -39 10 -41 -17 -3 -12 18 -36 48
-52 67 -15 18 -26 39 -23 46 3 8 2 15 -2 17 -11 5 -86 99 -109 136 l-20 34 22
24 c27 29 40 31 23 4 -10 -16 -10 -23 4 -36 14 -15 18 -15 44 2 l29 18 -18
-20 c-17 -21 -16 -22 50 -81 38 -34 104 -88 148 -121 44 -33 91 -70 105 -83
14 -13 55 -49 90 -80 130 -111 163 -128 174 -91 4 13 4 13 3 -3 -1 -11 14 -37
32 -58 35 -38 55 -48 45 -23 -3 8 0 17 6 21 7 4 10 1 9 -6 -5 -26 12 -61 27
-55 9 4 12 2 8 -5 -6 -11 38 -64 66 -79 23 -13 19 55 -6 110 -12 25 -28 61
-37 80 -24 56 -67 144 -77 160 -21 36 -80 201 -97 274 -13 59 -22 80 -36 84
-14 4 -15 7 -6 13 8 5 12 25 10 56 -1 26 5 77 13 113 18 74 20 93 8 86 -5 -3
-6 9 -4 27 4 27 6 29 12 12 6 -17 9 -15 24 19 9 21 16 49 16 62 0 12 4 25 9
28 5 3 12 27 16 53 4 25 13 56 21 69 13 19 19 43 23 87 1 4 6 7 12 7 5 0 55
36 110 81 77 61 104 78 114 69 10 -8 18 -2 35 25 12 20 28 34 35 32 6 -3 67
-39 134 -81 67 -42 124 -76 126 -76 3 0 45 -25 95 -55 50 -30 132 -69 182 -86
51 -17 107 -40 125 -50 162 -91 166 -92 243 -96 64 -4 80 -1 109 17 30 19 33
23 18 32 -9 5 -17 17 -17 27 0 21 -35 74 -82 127 -18 20 -32 41 -30 46 1 5 -2
7 -8 3 -5 -3 -10 -2 -10 3 0 6 -17 17 -37 25 -21 8 -47 24 -58 34 -11 10 -44
35 -72 57 -29 21 -53 41 -53 46 0 4 -16 18 -35 31 -39 27 -43 36 -17 42 16 4
16 5 -2 12 -10 4 -55 29 -100 54 -44 26 -97 55 -117 65 -31 16 -69 63 -69 85
0 4 59 54 132 112 72 57 177 140 232 184 253 202 317 247 340 243 19 -4 25 1
35 27 7 19 37 52 78 85 38 30 69 57 71 62 4 9 62 -19 62 -30 0 -5 -7 -32 -16
-61 -8 -29 -13 -55 -11 -57 2 -3 49 -27 103 -53 l99 -49 28 54 c15 30 30 54
32 54 3 0 91 -43 195 -95 104 -52 192 -95 195 -95 3 0 5 47 5 105 0 81 -3 105
-13 105 -8 0 -22 9 -32 20 -10 11 -24 20 -30 20 -21 0 -66 42 -63 59 1 9 -5
27 -15 41 -9 13 -17 29 -17 36 0 6 -21 22 -47 35 -25 13 -49 31 -53 39 -4 8
-15 29 -24 45 -50 89 -52 94 -30 109 10 8 88 68 172 135 l152 121 0 436 c0
239 -3 433 -7 431 -5 -2 -116 -57 -248 -122 -222 -109 -342 -167 -550 -265
-44 -21 -170 -82 -280 -135 -110 -54 -261 -127 -335 -162 -217 -105 -411 -199
-618 -300 -107 -52 -196 -93 -197 -91 -2 2 66 61 151 132 114 94 152 131 142
137 -9 7 -7 8 7 7 11 -2 40 13 64 32 115 93 170 143 165 151 -3 5 1 6 9 3 17
-6 44 23 31 35 -5 5 -59 5 -119 0 -95 -8 -184 -21 -462 -70 -29 -5 -101 -27
-160 -48 -109 -39 -141 -53 -382 -167 -74 -36 -144 -67 -157 -70 -13 -3 -28
-12 -35 -20 -6 -8 -16 -14 -22 -14 -10 0 -116 -48 -375 -171 -68 -33 -126 -59
-128 -59 -2 0 -27 -11 -54 -24 -46 -22 -51 -23 -60 -8 -8 14 -11 14 -18 4 -7
-11 -10 -10 -15 3 -4 9 -3 13 3 10 6 -3 10 -1 10 5 0 11 -99 209 -110 220 -3
3 -20 34 -38 70 -52 101 -72 136 -72 123 0 -16 21 -64 36 -83 6 -8 15 -26 18
-40 7 -27 1 -18 -55 87 -14 26 -73 136 -131 243 -58 107 -129 240 -158 295
-29 55 -63 118 -75 140 -13 22 -38 69 -57 105 -19 36 -104 196 -190 355 -277
517 -298 559 -293 575 5 17 0 28 -100 210 -93 170 -116 217 -110 232 4 9 -10
32 -32 56 -52 56 -57 62 -72 100 -7 17 -16 32 -20 32 -4 0 -13 17 -20 38 -8
20 -17 39 -20 42 -4 3 -38 60 -76 128 -38 67 -72 122 -76 122 -4 0 -11 -5 -14
-10z m292 -492 c-3 -8 -6 -5 -6 6 -1 11 2 17 5 13 3 -3 4 -12 1 -19z m52 -630
c6 -18 7 -28 2 -23 -10 12 -25 55 -18 55 3 0 10 -15 16 -32z m-3885 -1404 c3
-8 2 -12 -4 -9 -6 3 -10 10 -10 16 0 14 7 11 14 -7z m6976 -47 c0 -2 -10 -12
-22 -23 l-23 -19 19 23 c18 21 26 27 26 19z m-90 -77 c0 -5 -5 -10 -11 -10 -5
0 -7 5 -4 10 3 6 8 10 11 10 2 0 4 -4 4 -10z m-146 -118 c-12 -9 -40 -32 -63
-50 -23 -19 -41 -31 -41 -28 0 7 110 96 118 96 4 0 -3 -8 -14 -18z m-1624
-121 c0 -5 6 -16 14 -23 7 -8 16 -25 20 -38 5 -17 -1 -12 -18 15 -14 22 -26
44 -26 48 0 4 -9 20 -19 35 -11 15 -22 38 -26 52 -3 14 7 2 24 -27 17 -29 31
-57 31 -62z m-5080 48 c0 -6 -4 -7 -10 -4 -5 3 -10 11 -10 16 0 6 5 7 10 4 6
-3 10 -11 10 -16z m6916 -14 c-8 -8 -21 -15 -28 -15 -8 1 -6 6 6 15 26 20 42
19 22 0z m-356 -27 c-95 -84 -111 -97 -108 -87 4 11 128 118 138 118 3 0 -11
-14 -30 -31z m-6483 -90 c-3 -8 -6 -5 -6 6 -1 11 2 17 5 13 3 -3 4 -12 1 -19z
m-40 -40 c-3 -8 -6 -5 -6 6 -1 11 2 17 5 13 3 -3 4 -12 1 -19z m6948 -28 c-3
-5 -11 -10 -16 -10 -6 0 -7 5 -4 10 3 6 11 10 16 10 6 0 7 -4 4 -10z m-6851
-54 c-3 -9 -2 -16 3 -16 6 0 15 -25 22 -55 7 -30 17 -57 22 -60 13 -9 11 -42
-3 -51 -8 -5 -9 0 -6 14 4 12 2 22 -4 22 -5 0 -6 5 -3 10 3 6 0 12 -7 15 -7 3
-13 18 -14 34 -1 15 -8 43 -17 61 -20 38 -21 43 -7 35 6 -3 10 -2 10 4 0 5 -4
13 -10 16 -5 3 -10 11 -10 18 0 6 7 2 15 -10 8 -12 12 -28 9 -37z m6813 38
c-3 -3 -12 -4 -19 -1 -8 3 -5 6 6 6 11 1 17 -2 13 -5z m1341 -48 c-7 -8 -15
-12 -17 -11 -5 6 10 25 20 25 5 0 4 -6 -3 -14z m-3079 -26 c11 -24 11 -24 -3
-6 -9 11 -16 24 -16 30 0 12 5 7 19 -24z m3020 -23 c-2 -1 -13 -9 -24 -17 -19
-14 -19 -14 -6 3 7 9 18 17 24 17 6 0 8 -1 6 -3z m-8099 -33 c0 -20 -7 -17
-20 6 -9 16 -8 18 5 14 8 -4 15 -12 15 -20z m5635 -134 c-3 -5 -14 -10 -23 -9
-14 0 -13 2 3 9 27 11 27 11 20 0z m-85 -39 c-8 -5 -26 -11 -40 -15 -21 -5
-20 -3 5 9 32 15 60 20 35 6z m-125 -66 c-38 -19 -79 -34 -90 -34 -11 0 14 15
55 34 97 45 127 45 35 0z m-5318 -17 c-3 -8 -6 -5 -6 6 -1 11 2 17 5 13 3 -3
4 -12 1 -19z m5203 -38 c-20 -13 -33 -13 -25 0 3 6 14 10 23 10 15 0 15 -2 2
-10z m-5203 -32 c-3 -8 -6 -5 -6 6 -1 11 2 17 5 13 3 -3 4 -12 1 -19z m5288
-108 c-3 -5 -11 -10 -16 -10 -6 0 -7 5 -4 10 3 6 11 10 16 10 6 0 7 -4 4 -10z
m45 0 c0 -5 -2 -10 -4 -10 -3 0 -8 5 -11 10 -3 6 -1 10 4 10 6 0 11 -4 11 -10z
m129 -14 c-14 -13 -142 -57 -157 -53 -11 3 -7 5 10 6 14 0 28 5 30 9 4 11 78
41 102 41 11 1 17 -1 15 -3z m-3209 -10 c0 -3 -4 -8 -10 -11 -5 -3 -10 -1 -10
4 0 6 5 11 10 11 6 0 10 -2 10 -4z m-397 -68 c-10 -21 -12 -21 -18 -5 -10 25
2 54 17 39 8 -8 8 -18 1 -34z m27 -22 c0 -3 -4 -8 -10 -11 -5 -3 -10 -1 -10 4
0 6 5 11 10 11 6 0 10 -2 10 -4z m721 -36 c13 -11 38 -31 54 -45 21 -17 24
-23 10 -18 -23 8 -79 45 -83 56 -2 4 -10 7 -18 7 -8 0 -14 5 -14 10 0 16 25
11 51 -10z m-794 -76 c-3 -3 -12 -4 -19 -1 -8 3 -5 6 6 6 11 1 17 -2 13 -5z
m913 -31 c14 -6 19 -12 12 -12 -20 -1 -52 18 -52 32 0 8 3 8 8 2 4 -6 18 -16
32 -22z m50 -33 c12 -7 10 -9 -8 -7 -12 0 -22 5 -22 9 0 11 12 10 30 -2z
m1885 -26 c-22 -8 -49 -18 -60 -24 -34 -16 -129 -50 -132 -46 -2 1 13 11 32
22 19 10 35 22 35 27 0 5 6 7 12 5 7 -3 38 3 68 13 66 21 101 23 45 3z m-2760
-14 c3 -6 -1 -7 -9 -4 -18 7 -21 14 -7 14 6 0 13 -4 16 -10z m4974 -83 c-2 -2
-20 -14 -39 -28 -38 -27 -68 -46 -60 -36 15 17 95 75 99 71 2 -2 2 -5 0 -7z
m-263 -202 c-8 -8 -18 -15 -22 -15 -3 0 -1 7 6 15 7 8 17 15 22 15 5 0 3 -7
-6 -15z m-2559 -52 c3 -13 9 -23 13 -23 4 0 13 -13 20 -30 7 -16 16 -30 20
-30 5 0 14 -15 20 -34 6 -19 24 -59 40 -90 15 -31 25 -56 21 -56 -4 0 -22 30
-41 68 -19 37 -48 92 -65 122 -43 79 -70 141 -50 115 9 -11 18 -30 22 -42z
m176 -50 c-7 -2 -21 -2 -30 0 -10 3 -4 5 12 5 17 0 24 -2 18 -5z m-893 -13 c0
-5 -5 -10 -11 -10 -5 0 -7 5 -4 10 3 6 8 10 11 10 2 0 4 -4 4 -10z m1003 -7
c-7 -2 -19 -2 -25 0 -7 3 -2 5 12 5 14 0 19 -2 13 -5z m22 -20 c-22 -2 -80 -8
-128 -14 -60 -7 -92 -8 -99 -1 -9 9 6 11 192 25 19 1 44 0 55 -3 12 -3 4 -6
-20 -7z m82 1 c-3 -3 -12 -4 -19 -1 -8 3 -5 6 6 6 11 1 17 -2 13 -5z m-1109
-29 c-7 -8 -30 -20 -51 -29 -36 -15 -37 -14 -27 4 6 12 21 20 35 20 15 0 25 6
25 15 0 9 6 12 16 8 13 -5 13 -8 2 -18z m572 17 c0 -5 37 -8 82 -8 57 1 83 -3
85 -11 3 -8 -5 -13 -22 -13 -27 0 -61 -14 -199 -81 -44 -22 -89 -39 -100 -38
-19 0 -19 1 3 10 13 5 21 12 18 15 -3 4 -27 -4 -52 -16 -25 -12 -53 -19 -61
-16 -12 4 -15 2 -10 -9 7 -20 -4 -19 -19 2 -12 16 -14 16 -29 0 -21 -20 -23
-20 -32 -5 -4 7 -3 8 4 4 7 -4 12 -2 12 3 0 6 -2 11 -4 11 -2 0 -12 3 -20 6
-12 5 -15 2 -10 -10 3 -9 1 -16 -5 -16 -6 0 -11 4 -11 10 0 12 -26 3 -65 -23
l-30 -20 29 31 c16 17 83 58 150 92 100 50 133 62 189 67 37 3 70 10 73 14 7
11 24 12 24 1z m2424 -31 c-3 -9 -6 -31 -5 -49 1 -21 -2 -31 -9 -27 -13 8 -13
62 0 70 5 3 6 13 3 22 -4 11 -3 14 6 9 7 -5 9 -15 5 -25z m-4447 -3 c-2 -8
-23 -14 -48 -14 -24 -1 -69 -5 -99 -9 -45 -5 -52 -4 -36 6 11 7 45 15 75 19
91 12 113 11 108 -2z m161 -43 c12 -12 -6 -11 -38 1 l-35 14 34 -5 c19 -3 37
-7 39 -10z m3098 -80 c-11 -8 -31 -15 -45 -16 l-26 -1 25 -8 c14 -4 36 -5 49
-2 18 4 22 2 16 -8 -5 -9 -4 -11 4 -6 16 10 61 -1 61 -15 0 -6 -9 -8 -22 -4
-18 5 -20 4 -8 -4 8 -6 31 -8 50 -5 26 4 31 3 20 -5 -12 -8 -8 -11 20 -12 19
-1 39 -1 43 0 5 1 5 -4 2 -10 -5 -7 5 -10 31 -9 68 5 71 -2 9 -17 -67 -17
-186 -28 -218 -19 -25 6 -147 83 -147 93 0 3 7 0 15 -7 12 -10 18 -9 31 5 15
15 15 17 -1 29 -16 12 -15 13 13 19 18 4 39 4 49 0 11 -4 14 -3 9 5 -5 8 1 12
16 12 22 -1 22 -1 4 -15z m-286 -21 c0 -2 -11 -4 -25 -4 -14 0 -25 4 -25 9 0
4 11 6 25 3 14 -2 25 -6 25 -8z m1441 -7 c-10 -9 -11 -8 -5 6 3 10 9 15 12 12
3 -3 0 -11 -7 -18z m-1306 3 c-3 -5 -12 -7 -20 -3 -21 7 -19 13 6 13 11 0 18
-4 14 -10z m-37 -45 c41 -20 73 -37 71 -39 -2 -2 -42 -1 -89 3 -71 6 -80 8
-52 15 17 4 32 11 32 14 0 11 -52 32 -63 25 -6 -3 -7 -1 -3 5 11 18 23 15 104
-23z m-558 -37 c0 -13 -23 -5 -28 10 -2 7 2 10 12 6 9 -3 16 -11 16 -16z m370
-16 c0 -4 -30 -21 -67 -37 -84 -36 -153 -102 -173 -165 -8 -25 -32 -79 -52
-120 -21 -41 -39 -86 -39 -100 -2 -32 -20 42 -21 83 -1 46 58 150 121 214 73
73 231 159 231 125z m369 -61 c99 -49 280 -188 281 -216 0 -5 -19 9 -42 32
-48 45 -132 102 -228 155 -60 32 -150 61 -225 72 -16 3 6 3 50 2 71 -3 89 -8
164 -45z m1135 33 c4 -10 1 -14 -6 -12 -15 5 -23 28 -10 28 5 0 13 -7 16 -16z
m-935 -91 c2 -2 2 -5 -1 -8 -7 -7 -78 26 -78 37 0 6 59 -15 79 -29z m-4589
-18 c0 -8 -2 -15 -4 -15 -2 0 -6 7 -10 15 -3 8 -1 15 4 15 6 0 10 -7 10 -15z
m2620 -55 c0 -5 -7 -10 -15 -10 -8 0 -15 5 -15 10 0 6 7 10 15 10 8 0 15 -4
15 -10z m80 -24 c0 -3 -4 -8 -10 -11 -5 -3 -10 -1 -10 4 0 6 5 11 10 11 6 0
10 -2 10 -4z m-2877 -46 c-3 -12 -8 -19 -11 -16 -5 6 5 36 12 36 2 0 2 -9 -1
-20z m4971 -55 c16 -12 17 -16 4 -28 -13 -13 -21 -8 -66 38 -29 29 -52 56 -52
59 0 6 79 -42 114 -69z m-4924 14 c0 -6 -4 -7 -10 -4 -5 3 -10 11 -10 16 0 6
5 7 10 4 6 -3 10 -11 10 -16z m3935 -19 c4 -16 11 -30 16 -30 5 0 9 -4 9 -10
0 -5 -7 -10 -15 -10 -8 0 -15 7 -15 15 0 8 -4 15 -10 15 -5 0 -10 11 -10 25 0
35 17 31 25 -5z m915 -5 c19 -19 32 -35 29 -35 -3 0 -20 16 -39 35 -19 19 -32
35 -29 35 3 0 20 -16 39 -35z m130 31 c0 -2 -7 -7 -16 -10 -8 -3 -12 -2 -9 4
6 10 25 14 25 6z m104 -15 c-22 -21 -27 -21 -18 3 3 9 13 16 22 16 13 0 12 -3
-4 -19z m112 -42 c3 -5 3 -9 -1 -9 -8 0 -85 49 -85 55 0 7 79 -36 86 -46z
m-4896 -65 c0 -4 -11 3 -25 16 -14 13 -25 27 -25 32 0 5 11 -2 25 -16 14 -14
25 -28 25 -32z m4615 26 c10 -11 16 -20 13 -20 -3 0 -13 9 -23 20 -10 11 -16
20 -13 20 3 0 13 -9 23 -20z m313 -11 c-3 -8 -7 -3 -11 10 -4 17 -3 21 5 13 5
-5 8 -16 6 -23z m-41 1 c14 -11 21 -20 15 -20 -6 0 -14 5 -17 10 -3 6 -15 10
-26 10 -11 0 -17 5 -14 10 9 14 13 13 42 -10z m-1210 -25 c8 -9 13 -18 11 -21
-3 -2 -13 5 -23 16 -21 23 -11 27 12 5z m-87 -107 c0 -9 5 -20 12 -24 7 -5 9
-2 5 8 -4 11 1 18 14 21 16 4 17 2 8 -15 -8 -15 -8 -22 1 -28 9 -6 9 -9 -1
-13 -10 -4 -9 -6 4 -6 9 -1 17 -6 17 -12 0 -6 12 -26 26 -45 41 -53 20 -40
-46 29 -49 51 -59 68 -60 97 0 26 3 31 10 20 5 -8 10 -23 10 -32z m-2715 -168
c-3 -5 -16 -10 -28 -10 -18 0 -19 2 -7 10 20 13 43 13 35 0z m4525 2 c0 -4 -9
-13 -20 -20 -19 -12 -20 -11 -8 8 13 20 28 27 28 12z m15 -33 c-4 -5 3 -18 14
-28 11 -10 22 -29 23 -42 2 -13 9 -30 16 -38 19 -19 11 -22 -31 -9 -36 11 -50
28 -24 28 8 0 7 4 -3 11 -12 9 -11 10 8 6 12 -3 22 -2 22 2 0 9 -38 41 -50 41
-17 0 -11 28 8 33 9 3 18 5 20 6 2 0 0 -4 -3 -10z m-4668 -25 c-3 -3 -12 -4
-19 -1 -8 3 -5 6 6 6 11 1 17 -2 13 -5z m4253 -89 c-1 -5 -7 -1 -16 10 -8 11
-20 27 -27 35 -31 37 -25 41 7 5 20 -22 36 -44 36 -50z m81 59 c23 -25 23 -26
2 -13 -13 7 -25 19 -27 26 -8 19 -2 16 25 -13z m304 -23 c-3 -6 -11 -11 -17
-11 -6 0 -6 6 2 15 14 17 26 13 15 -4z m-50 -41 c10 -11 14 -20 8 -20 -5 0
-18 9 -28 20 -10 11 -14 20 -8 20 5 0 18 -9 28 -20z m-206 -16 c36 -14 64 -44
40 -44 -10 0 -89 50 -89 56 0 7 8 5 49 -12z m-39 -81 c0 -8 -12 1 -28 19 -51
61 -56 73 -14 33 23 -21 42 -45 42 -52z m330 77 c13 -8 13 -10 -2 -10 -9 0
-20 5 -23 10 -8 13 5 13 25 0z m-2137 -37 c-7 -2 -19 -2 -25 0 -7 3 -2 5 12 5
14 0 19 -2 13 -5z m-3488 -193 c-3 -5 -12 -10 -18 -10 -7 0 -6 4 3 10 19 12
23 12 15 0z m4795 -275 c14 -16 10 -18 -14 -9 -9 3 -16 10 -16 15 0 14 16 11
30 -6z m-45 -16 c11 -17 -1 -21 -15 -4 -8 9 -8 15 -2 15 6 0 14 -5 17 -11z
m-1495 -226 l45 -47 -50 44 c-27 24 -52 45 -54 47 -2 2 0 3 5 3 6 0 30 -21 54
-47z m865 -14 c4 -5 18 -14 31 -19 13 -5 24 -14 24 -21 0 -6 -16 -1 -35 11
-30 19 -38 20 -52 8 -15 -12 -15 -11 -4 10 13 24 26 28 36 11z m1598 -26 c-7
-2 -21 -2 -30 0 -10 3 -4 5 12 5 17 0 24 -2 18 -5z m-1418 -63 c3 -5 15 -10
26 -10 12 0 19 -7 18 -17 0 -11 -3 -13 -6 -5 -2 6 -11 12 -18 12 -7 0 -26 7
-41 15 -26 13 -27 15 -7 15 12 0 25 -4 28 -10z m-174 -20 c12 -7 19 -21 18
-38 l-1 -27 -10 28 c-6 16 -17 27 -29 27 -10 0 -19 5 -19 10 0 13 16 13 41 0z
m56 -42 c-3 -7 -5 -2 -5 12 0 14 2 19 5 13 2 -7 2 -19 0 -25z m119 -44 c17
-14 17 -15 1 -10 -10 3 -25 6 -33 6 -8 0 -14 5 -14 10 0 15 24 12 46 -6z
m-1725 -120 c-5 -16 -10 -21 -10 -12 -1 18 10 51 15 45 2 -1 -1 -16 -5 -33z
m1779 -45 c0 -4 -7 -6 -15 -3 -8 4 -15 10 -15 15 0 4 7 6 15 3 8 -4 15 -10 15
-15z m-4422 -54 c-3 -3 -9 2 -12 12 -6 14 -5 15 5 6 7 -7 10 -15 7 -18z m3292
-15 c13 -8 13 -10 -2 -10 -9 0 -20 5 -23 10 -8 13 5 13 25 0z m-1140 -62 c0
-17 -15 -7 -27 18 -12 26 -12 26 7 9 11 -10 20 -22 20 -27z m-70 -8 c0 -5 -2
-10 -4 -10 -3 0 -8 5 -11 10 -3 6 -1 10 4 10 6 0 11 -4 11 -10z m1330 -10 c19
-11 28 -19 20 -20 -9 0 -21 5 -28 12 -15 15 -16 -3 -3 -50 6 -20 6 -32 0 -32
-5 0 -9 -6 -9 -14 0 -8 -4 -17 -10 -21 -5 -3 -5 8 2 26 9 25 7 38 -6 65 -28
59 -22 65 34 34z m-1204 -165 c3 -24 2 -22 -10 10 -7 22 -22 60 -33 85 -11 25
-18 51 -15 58 5 15 52 -108 58 -153z m1144 15 c-8 -5 -22 -9 -30 -9 -10 0 -8
3 5 9 27 12 43 12 25 0z m-540 -275 c0 -5 -5 -3 -10 5 -5 8 -10 20 -10 25 0 6
5 3 10 -5 5 -8 10 -19 10 -25z m875 -75 c3 -5 -1 -10 -10 -10 -9 0 -13 5 -10
10 3 6 8 10 10 10 2 0 7 -4 10 -10z m135 1 c0 -10 -24 -21 -43 -21 -7 0 -3 7
7 15 22 17 36 19 36 6z m-177 -46 c4 -8 2 -17 -3 -20 -6 -4 -10 3 -10 14 0 25
6 27 13 6z m57 -36 c0 -5 -7 -9 -15 -9 -15 0 -20 12 -9 23 8 8 24 -1 24 -14z
m142 -11 c-9 -9 -15 -9 -24 0 -9 9 -7 12 12 12 19 0 21 -3 12 -12z m-212 -19
c0 -17 3 -19 13 -10 8 6 17 8 21 4 3 -4 38 -7 76 -8 57 -1 73 -5 84 -21 8 -10
10 -20 5 -22 -5 -2 -9 -26 -9 -53 0 -53 -5 -59 -26 -31 -13 16 -14 16 -8 0 5
-14 1 -18 -15 -18 -30 0 -36 3 -33 19 2 7 -1 10 -7 6 -6 -3 -8 -18 -5 -33 3
-15 2 -22 -3 -16 -4 7 -19 14 -33 15 -19 3 -26 11 -28 32 -2 19 -9 27 -23 27
-21 0 -26 29 -8 47 9 9 7 10 -9 6 -27 -7 -55 4 -47 17 5 8 11 7 21 -1 19 -16
30 -4 14 16 -13 16 -7 45 10 45 5 0 10 -10 10 -21z m1250 -49 c1 10 4 9 10 -5
14 -33 11 -39 -10 -20 -11 10 -20 25 -19 34 0 12 3 11 9 -4 6 -14 9 -15 10 -5z
m-2400 -135 l75 0 0 -40 c1 -22 -2 -44 -5 -50 -4 -5 -13 -32 -20 -58 -9 -33
-16 -44 -21 -35 -10 15 -12 7 -9 -44 1 -33 -1 -38 -22 -39 -22 0 -22 -1 -3
-10 18 -8 18 -9 -5 -7 -33 2 -80 -12 -80 -23 0 -5 -9 -9 -20 -9 -14 0 -20 7
-20 23 0 33 -9 38 -36 20 -13 -8 -24 -11 -24 -6 0 5 -11 16 -25 23 -21 11 -25
21 -25 57 0 32 4 43 15 43 8 0 15 7 15 16 0 8 4 13 9 10 11 -7 81 93 81 116 0
18 19 29 35 19 6 -3 44 -6 85 -6z m-795 -135 c3 -5 -1 -10 -9 -10 -9 0 -16 5
-16 10 0 6 4 10 9 10 6 0 13 -4 16 -10z m-85 -49 c0 -13 -25 -20 -49 -14 -33
9 -24 23 14 23 19 0 35 -4 35 -9z m3615 -11 c3 -5 2 -10 -4 -10 -5 0 -13 5
-16 10 -3 6 -2 10 4 10 5 0 13 -4 16 -10z m50 -38 c-3 -3 -11 0 -18 7 -9 10
-8 11 6 5 10 -3 15 -9 12 -12z m-3762 -4 c-13 -6 -23 -15 -23 -20 0 -4 -4 -8
-10 -8 -17 0 -11 28 8 33 32 9 47 6 25 -5z m57 -7 c0 -5 3 -18 6 -28 6 -16 5
-16 -9 2 -19 23 -21 35 -7 35 6 0 10 -4 10 -9z m108 -137 c-10 -9 -58 -12 -58
-3 0 5 14 9 32 9 17 0 29 -3 26 -6z m2392 -14 c0 -5 -7 -10 -16 -10 -8 0 -12
5 -9 10 3 6 10 10 16 10 5 0 9 -4 9 -10z m-2425 -20 c3 -5 17 -10 31 -10 30 0
23 -17 -14 -33 -40 -17 -44 -15 -47 21 -3 31 16 45 30 22z m805 -30 c0 -5 -4
-10 -10 -10 -5 0 -10 5 -10 10 0 6 5 10 10 10 6 0 10 -4 10 -10z m4920 -20 c0
-5 -4 -10 -9 -10 -6 0 -13 5 -16 10 -3 6 1 10 9 10 9 0 16 -4 16 -10z m-5567
-57 c-7 -2 -19 -2 -25 0 -7 3 -2 5 12 5 14 0 19 -2 13 -5z m102 -23 l20 -1
-20 -9 c-31 -14 -95 -12 -95 3 0 11 18 13 95 7z m5276 1 c-8 -5 -20 -7 -28 -4
-21 8 -15 13 15 13 20 0 23 -3 13 -9z m-5421 -6 c0 -2 -10 -9 -22 -15 -22 -11
-22 -10 -4 4 21 17 26 19 26 11z m40 -5 c0 -5 -2 -10 -4 -10 -3 0 -8 5 -11 10
-3 6 -1 10 4 10 6 0 11 -4 11 -10z m5500 -42 c0 -17 -3 -18 -14 -8 -8 6 -12
18 -9 26 7 19 23 7 23 -18z m-3640 -16 c0 -4 -13 -7 -30 -7 -35 0 -40 12 -7
17 24 4 37 1 37 -10z m-1720 -12 c-36 -11 -50 -11 -50 0 0 6 17 10 38 9 33 -1
34 -2 12 -9z m2104 -38 c-15 -21 -19 -24 -22 -10 -4 18 31 64 36 48 2 -6 -4
-23 -14 -38z m-1934 22 c0 -8 -5 -12 -10 -9 -6 4 -8 11 -5 16 9 14 15 11 15
-7z m1900 6 c0 -5 -4 -10 -10 -10 -5 0 -10 5 -10 10 0 6 5 10 10 10 6 0 10 -4
10 -10z m-1846 -25 c-4 -8 -8 -15 -10 -15 -2 0 -4 7 -4 15 0 8 4 15 10 15 5 0
7 -7 4 -15z m556 5 c0 -5 -4 -10 -10 -10 -5 0 -10 5 -10 10 0 6 5 10 10 10 6
0 10 -4 10 -10z m-654 -37 c-10 -10 -19 5 -10 18 6 11 8 11 12 0 2 -7 1 -15
-2 -18z m-83 -3 c-3 -11 -7 -20 -9 -20 -2 0 -4 9 -4 20 0 11 4 20 9 20 5 0 7
-9 4 -20z m55 -12 c-6 -18 -28 -21 -28 -4 0 9 7 16 16 16 9 0 14 -5 12 -12z
m4939 -30 c-3 -8 -6 -5 -6 6 -1 11 2 17 5 13 3 -3 4 -12 1 -19z m-4687 -49 c0
-20 -28 -45 -38 -34 -4 4 -1 10 6 12 15 6 16 39 2 48 -6 4 -8 11 -4 16 7 13
33 -20 34 -42z m-227 -20 c-5 -19 -7 -19 -15 -5 -10 18 -2 39 12 31 4 -3 6
-15 3 -26z m177 21 c0 -5 -4 -10 -10 -10 -5 0 -10 5 -10 10 0 6 5 10 10 10 6
0 10 -4 10 -10z m1145 0 c3 -5 -1 -10 -9 -10 -9 0 -16 5 -16 10 0 6 4 10 9 10
6 0 13 -4 16 -10z m-95 -30 c0 -4 -11 -5 -25 -2 -14 2 -25 10 -25 18 0 11 5
11 25 2 14 -6 25 -14 25 -18z m-1300 -10 c0 -5 -4 -10 -10 -10 -5 0 -10 5 -10
10 0 6 5 10 10 10 6 0 10 -4 10 -10z m4920 -20 c0 -11 -7 -20 -15 -20 -18 0
-19 12 -3 28 16 16 18 15 18 -8z m-4783 -12 c-3 -8 -6 -5 -6 6 -1 11 2 17 5
13 3 -3 4 -12 1 -19z m149 8 c24 -24 16 -38 -11 -19 -13 10 -25 21 -25 26 0
12 20 8 36 -7z m998 -15 c8 -12 -19 -21 -65 -21 -53 0 -50 18 4 23 23 2 45 4
49 5 4 1 9 -2 12 -7z m-1049 -10 c3 -5 1 -12 -5 -16 -5 -3 -10 1 -10 9 0 18 6
21 15 7z m865 -20 c0 -12 -29 -23 -41 -15 -5 3 -7 10 -4 15 8 12 45 12 45 0z
m35 -51 c-3 -5 -15 -10 -26 -10 -10 0 -19 5 -19 10 0 6 12 10 26 10 14 0 23
-4 19 -10z"/>
<path d="M4950 6635 c0 -5 5 -17 10 -25 5 -8 10 -10 10 -5 0 6 -5 17 -10 25
-5 8 -10 11 -10 5z"/>
<path d="M5000 6532 c0 -5 7 -15 15 -22 8 -7 15 -9 15 -6 0 4 -7 14 -15 22 -8
9 -15 11 -15 6z"/>
<path d="M5030 6486 c0 -6 38 -83 58 -115 1 -2 4 -2 7 0 2 3 -11 32 -30 64
-19 33 -35 56 -35 51z"/>
<path d="M5115 6318 c4 -13 11 -27 16 -33 5 -5 4 5 -2 23 -12 36 -24 44 -14
10z"/>
<path d="M4198 5593 c7 -3 16 -2 19 1 4 3 -2 6 -13 5 -11 0 -14 -3 -6 -6z"/>
<path d="M470 5467 c0 -23 4 -36 10 -32 13 8 13 35 0 55 -7 11 -10 5 -10 -23z"/>
<path d="M2497 5393 c-13 -12 -7 -23 13 -23 13 0 18 5 14 15 -7 16 -17 19 -27
8z"/>
<path d="M470 5259 c0 -8 7 -24 15 -35 8 -10 15 -25 15 -33 0 -8 10 -37 23
-65 13 -28 28 -62 34 -76 10 -24 10 -24 9 7 -1 18 -4 33 -8 33 -5 0 -8 6 -8
14 0 7 -7 19 -15 26 -8 7 -15 20 -15 29 -1 21 -50 121 -50 100z"/>
<path d="M711 4784 c0 -11 3 -14 6 -6 3 7 2 16 -1 19 -3 4 -6 -2 -5 -13z"/>
<path d="M920 4251 c0 -6 5 -13 10 -16 6 -3 10 1 10 9 0 9 -4 16 -10 16 -5 0
-10 -4 -10 -9z"/>
<path d="M6100 3756 c0 -2 7 -7 16 -10 8 -3 12 -2 9 4 -6 10 -25 14 -25 6z"/>
<path d="M6220 3570 c0 -5 5 -10 11 -10 5 0 7 5 4 10 -3 6 -8 10 -11 10 -2 0
-4 -4 -4 -10z"/>
<path d="M6720 3177 c0 -2 15 -16 33 -33 l32 -29 -29 33 c-28 30 -36 37 -36
29z"/>
<path d="M7300 2433 c0 -6 8 -17 18 -24 16 -13 16 -13 2 6 -8 11 -16 22 -17
24 -2 2 -3 0 -3 -6z"/>
<path d="M7500 2206 c0 -2 8 -10 18 -17 15 -13 16 -12 3 4 -13 16 -21 21 -21
13z"/>
<path d="M1085 1694 c5 -30 4 -36 -9 -31 -8 3 -19 0 -25 -7 -9 -10 -7 -15 9
-19 13 -3 18 -10 14 -21 -12 -31 21 -16 36 17 11 25 15 28 18 13 2 -10 -2 -29
-9 -42 -7 -13 -10 -27 -7 -30 12 -12 37 62 34 103 -2 47 -16 72 -16 30 0 -34
-16 -35 -24 -2 -10 41 -29 30 -21 -11z"/>
<path d="M5075 1620 c3 -5 11 -10 16 -10 6 0 7 5 4 10 -3 6 -11 10 -16 10 -6
0 -7 -4 -4 -10z"/>
<path d="M5007 1583 c-15 -14 -6 -24 16 -18 35 11 44 25 16 25 -14 0 -29 -3
-32 -7z"/>
<path d="M1986 1453 c-3 -10 -8 -23 -11 -28 -3 -6 9 -16 25 -24 34 -15 60 -3
60 28 0 39 -62 58 -74 24z m54 -23 c0 -5 -4 -10 -10 -10 -5 0 -10 5 -10 10 0
6 5 10 10 10 6 0 10 -4 10 -10z"/>
<path d="M2070 1401 c0 -5 5 -13 10 -16 6 -3 10 -2 10 4 0 5 -4 13 -10 16 -5
3 -10 2 -10 -4z"/>
<path d="M1810 1380 c0 -5 7 -10 16 -10 11 0 14 -6 9 -20 -4 -12 -2 -20 5 -20
7 0 10 -7 6 -15 -6 -16 3 -19 28 -9 21 8 21 24 0 24 -11 0 -14 8 -12 27 2 22
-1 27 -24 30 -16 2 -28 -1 -28 -7z"/>
<path d="M1600 1366 c0 -2 7 -9 15 -16 9 -7 15 -8 15 -2 0 5 -7 12 -15 16 -8
3 -15 4 -15 2z"/>
<path d="M1890 1349 c0 -5 5 -7 10 -4 6 3 10 8 10 11 0 2 -4 4 -10 4 -5 0 -10
-5 -10 -11z"/>
<path d="M1780 1330 c0 -15 -7 -20 -24 -20 -29 0 -38 -10 -26 -30 7 -11 14
-12 34 -2 26 12 32 7 18 -14 -8 -12 -92 -6 -92 7 0 5 -4 9 -8 9 -5 0 -8 -10
-8 -22 1 -20 -5 -23 -43 -26 -33 -3 -44 -8 -48 -23 -3 -10 -12 -19 -19 -19
-23 0 -16 -27 9 -34 l22 -6 -24 -13 c-31 -16 -32 -31 -3 -35 13 -2 22 -10 22
-20 0 -12 3 -13 8 -5 4 7 26 12 47 13 22 0 58 0 80 1 25 0 43 6 48 15 5 8 22
28 38 45 16 16 29 34 29 39 0 4 3 15 6 24 4 11 1 16 -11 16 -9 0 -14 4 -11 9
4 5 0 11 -6 14 -9 3 -8 9 5 19 17 13 17 15 -2 37 -12 13 -21 28 -21 33 0 4 -4
8 -10 8 -5 0 -10 -9 -10 -20z m20 -99 c0 -5 3 -17 6 -26 5 -13 2 -16 -16 -13
-30 4 -37 48 -8 48 10 0 18 -4 18 -9z m-160 -31 c0 -5 -9 -10 -21 -10 -11 0
-17 5 -14 10 3 6 13 10 21 10 8 0 14 -4 14 -10z m95 0 c3 -5 1 -10 -4 -10 -6
0 -11 5 -11 10 0 6 2 10 4 10 3 0 8 -4 11 -10z"/>
<path d="M5031 1294 c0 -11 3 -14 6 -6 3 7 2 16 -1 19 -3 4 -6 -2 -5 -13z"/>
<path d="M2554 1278 c3 -13 6 -25 6 -28 0 -7 80 0 80 7 0 24 -25 43 -57 43
-32 0 -35 -2 -29 -22z"/>
<path d="M2513 1247 c5 -15 37 -22 37 -9 0 5 -9 12 -21 15 -13 3 -19 1 -16 -6z"/>
<path d="M2567 1163 c-14 -13 -6 -33 13 -33 22 0 23 1 14 24 -7 17 -16 20 -27
9z"/>
<path d="M1518 1143 c7 -3 16 -2 19 1 4 3 -2 6 -13 5 -11 0 -14 -3 -6 -6z"/>
<path d="M1498 1093 c7 -3 16 -2 19 1 4 3 -2 6 -13 5 -11 0 -14 -3 -6 -6z"/>
<path d="M1533 1075 c-17 -19 -16 -25 2 -25 8 0 19 -9 25 -20 10 -19 9 -20
-14 -14 -22 5 -26 3 -26 -15 0 -12 -5 -20 -12 -18 -6 1 -14 -6 -16 -15 -2 -11
2 -18 12 -18 10 0 16 -9 16 -22 0 -17 3 -19 12 -10 16 16 28 15 28 -3 0 -21
36 -19 44 2 4 10 4 15 1 11 -3 -3 -18 5 -32 18 -20 19 -24 27 -15 36 7 7 12 9
12 4 0 -4 14 1 30 11 31 18 43 50 15 39 -10 -3 -26 6 -43 24 -23 25 -29 27
-39 15z"/>
<path d="M2481 1064 c0 -11 3 -14 6 -6 3 7 2 16 -1 19 -3 4 -6 -2 -5 -13z"/>
<path d="M1442 994 c1 -37 28 -50 28 -13 0 14 5 19 15 16 18 -8 30 9 13 19 -7
4 -22 9 -35 10 -19 2 -22 -2 -21 -32z"/>
<path d="M2470 1025 c0 -15 18 -40 24 -34 3 3 -1 14 -9 25 -8 10 -14 15 -15 9z"/>
<path d="M1410 974 c0 -8 5 -12 10 -9 6 4 8 11 5 16 -9 14 -15 11 -15 -7z"/>
<path d="M8347 933 c-12 -11 -8 -23 8 -23 8 0 15 7 15 15 0 16 -12 20 -23 8z"/>
<path d="M8380 921 c-14 -27 -13 -41 4 -41 8 0 16 -4 18 -9 2 -5 16 -7 31 -4
34 7 30 29 -5 25 -22 -2 -25 1 -23 23 4 30 -10 33 -25 6z"/>
<path d="M1385 904 c1 -17 10 -31 26 -40 15 -8 19 -14 9 -14 -8 -1 -5 -5 9
-11 23 -9 23 -10 -20 -43 -24 -18 -50 -31 -56 -29 -20 8 -15 23 6 23 10 0 21
7 25 15 4 11 -2 15 -22 16 -26 0 -26 1 -4 9 30 13 28 20 -8 20 -19 0 -30 -5
-30 -14 0 -8 -9 -18 -21 -21 -19 -6 -19 -8 -3 -19 16 -12 16 -14 -2 -24 -17
-10 -17 -11 6 -31 l25 -20 -32 -7 c-18 -3 -33 -12 -33 -19 0 -8 -9 -10 -25 -7
-32 6 -31 -3 1 -46 21 -27 24 -36 13 -43 -17 -10 -40 8 -32 27 9 23 -10 15
-30 -12 -22 -30 -19 -35 24 -39 23 -2 36 -9 43 -24 5 -11 17 -21 28 -21 10 0
18 -4 18 -10 0 -5 -9 -10 -20 -10 -11 0 -20 5 -20 10 0 6 -10 10 -22 10 l-23
0 20 -18 c40 -33 48 -50 34 -65 -11 -12 -16 -11 -31 7 -17 21 -17 21 -18 -7 0
-16 7 -30 15 -33 8 -4 15 -14 15 -24 0 -22 15 -34 31 -24 8 5 8 9 -1 14 -17
10 19 30 52 29 13 0 42 3 66 7 42 7 42 7 42 -25 0 -30 -2 -31 -40 -31 -29 0
-40 -4 -40 -15 0 -13 4 -14 20 -5 12 6 31 8 43 4 12 -4 32 -7 44 -5 23 2 39
-14 23 -24 -5 -3 -10 -15 -10 -26 0 -14 7 -19 29 -19 16 0 31 4 33 8 2 5 17
12 33 15 17 3 24 4 18 1 -18 -8 -16 -27 2 -21 8 4 17 2 20 -3 12 -20 24 -9 31
26 5 28 9 33 15 21 5 -8 6 -29 3 -45 -5 -25 -12 -31 -41 -34 -23 -3 -37 0 -40
9 -3 7 -14 13 -25 13 -10 0 -16 -4 -13 -10 3 -5 -5 -15 -19 -21 -20 -9 -22
-14 -12 -24 9 -9 25 -11 57 -4 70 13 109 11 109 -6 0 -8 -4 -15 -10 -15 -5 0
-10 -9 -10 -20 0 -13 -7 -20 -20 -20 -23 0 -24 -4 -9 -32 8 -14 8 -23 0 -31
-14 -14 -14 -27 -1 -27 6 0 10 6 10 14 0 8 9 18 21 21 19 6 20 7 2 20 -21 15
-18 20 17 29 14 3 19 3 13 0 -26 -12 -12 -24 22 -21 39 5 60 17 29 17 -18 1
-18 1 -1 11 25 15 21 28 -10 26 -23 -2 -28 3 -34 33 -19 85 -18 109 3 116 15
4 17 8 8 14 -7 4 -9 13 -6 19 4 6 0 11 -8 11 -9 0 -16 3 -16 8 1 10 41 38 68
46 23 8 31 34 10 33 -31 -1 -48 4 -48 13 0 6 12 9 26 8 15 -2 29 3 31 10 3 6
-1 12 -7 12 -7 0 -23 9 -37 20 -14 11 -21 20 -14 20 6 0 11 5 11 10 0 6 -10
10 -23 10 -30 0 -74 55 -51 64 8 3 12 11 9 16 -4 6 -2 17 4 24 14 16 -21 51
-43 43 -8 -3 -17 1 -20 9 -8 22 -8 24 9 24 8 0 15 6 15 14 0 8 8 17 17 20 15
6 15 9 -4 27 -16 16 -25 19 -39 11 -27 -14 -129 -13 -115 1 7 7 29 11 51 11
42 -1 48 4 28 25 -11 11 -8 12 15 7 20 -5 27 -3 27 8 0 17 -27 29 -36 15 -3
-6 -17 -9 -30 -6 -13 2 -24 0 -24 -4 0 -5 -7 -9 -15 -9 -19 0 -19 9 1 31 24
27 11 49 -30 49 -26 0 -35 -5 -39 -21 -3 -12 -10 -18 -16 -15 -6 4 -8 13 -4
21 3 9 -1 15 -9 15 -8 0 -13 -10 -13 -26z m228 -131 c-7 -2 -19 -2 -25 0 -7 3
-2 5 12 5 14 0 19 -2 13 -5z m-13 -23 c0 -5 -7 -7 -15 -4 -8 4 -21 2 -28 -4
-17 -14 -47 -11 -47 5 0 9 14 13 45 13 25 0 45 -4 45 -10z m-155 -210 c3 -5 1
-10 -4 -10 -6 0 -11 5 -11 10 0 6 2 10 4 10 3 0 8 -4 11 -10z m155 -12 c0 -28
-28 -58 -53 -58 -20 0 -20 1 -2 20 18 20 18 21 -3 27 -32 8 -27 21 11 26 17 2
35 5 40 5 4 1 7 -8 7 -20z m96 -40 c4 -6 2 -14 -4 -16 -7 -2 -12 -13 -13 -25
0 -21 -1 -21 -9 -2 -13 31 -11 55 4 55 8 0 18 -5 22 -12z m-191 -44 c-9 -9
-19 -13 -23 -10 -3 4 0 11 8 16 24 15 33 11 15 -6z m175 -46 c0 -7 -4 -19 -9
-27 -11 -17 -25 3 -17 24 7 18 26 20 26 3z m-212 -37 c-15 -5 -21 7 -13 26 7
17 8 17 15 -2 4 -11 3 -22 -2 -24z m132 -31 c0 -5 -18 -10 -40 -10 -22 0 -40
5 -40 10 0 6 18 10 40 10 22 0 40 -4 40 -10z"/>
<path d="M1520 889 c0 -5 5 -7 10 -4 6 3 10 8 10 11 0 2 -4 4 -10 4 -5 0 -10
-5 -10 -11z"/>
<path d="M1610 880 c0 -5 5 -10 10 -10 6 0 10 5 10 10 0 6 -4 10 -10 10 -5 0
-10 -4 -10 -10z"/>
<path d="M5406 841 c-4 -7 -5 -15 -2 -18 9 -9 19 4 14 18 -4 11 -6 11 -12 0z"/>
<path d="M5511 784 c0 -11 3 -14 6 -6 3 7 2 16 -1 19 -3 4 -6 -2 -5 -13z"/>
<path d="M1791 744 c0 -11 3 -14 6 -6 3 7 2 16 -1 19 -3 4 -6 -2 -5 -13z"/>
<path d="M5440 750 c0 -5 5 -10 10 -10 6 0 10 5 10 10 0 6 -4 10 -10 10 -5 0
-10 -4 -10 -10z"/>
<path d="M1660 740 c0 -5 5 -10 10 -10 6 0 10 5 10 10 0 6 -4 10 -10 10 -5 0
-10 -4 -10 -10z"/>
<path d="M2657 733 c-11 -18 13 -53 35 -53 16 0 19 3 10 9 -10 6 -10 10 3 21
13 11 13 15 3 21 -16 11 -45 11 -51 2z"/>
<path d="M2600 721 c0 -5 -7 -17 -16 -25 -21 -22 4 -22 35 0 18 13 20 18 10
25 -18 11 -29 11 -29 0z"/>
<path d="M2535 710 c3 -5 10 -10 16 -10 5 0 9 5 9 10 0 6 -7 10 -16 10 -8 0
-12 -4 -9 -10z"/>
<path d="M1177 673 c-13 -13 -7 -32 8 -27 8 4 15 12 15 20 0 15 -12 19 -23 7z"/>
<path d="M7999 668 c0 -7 -2 -30 -5 -50 -2 -20 0 -39 6 -43 6 -4 10 14 10 49
0 31 -2 56 -5 56 -3 0 -5 -6 -6 -12z"/>
<path d="M1680 660 c0 -5 7 -10 16 -10 8 0 12 5 9 10 -3 6 -10 10 -16 10 -5 0
-9 -4 -9 -10z"/>
<path d="M6455 619 c-18 -9 -18 -9 3 -5 31 6 65 -46 52 -80 -5 -13 -5 -26 -1
-29 13 -7 42 5 35 16 -3 5 0 9 5 9 6 0 11 -8 11 -17 1 -17 2 -16 15 1 19 25
12 35 -20 28 -25 -4 -35 11 -15 23 7 4 7 13 0 26 -6 10 -7 19 -3 19 4 0 1 5
-7 10 -19 12 -49 12 -75 -1z"/>
<path d="M6926 617 c-16 -11 -11 -13 33 -13 29 0 46 3 39 7 -31 16 -55 18 -72
6z"/>
<path d="M2572 608 c5 -15 28 -18 29 -3 0 6 -7 12 -17 13 -10 3 -15 -1 -12
-10z"/>
<path d="M4840 600 c0 -5 4 -10 9 -10 6 0 13 5 16 10 3 6 -1 10 -9 10 -9 0
-16 -4 -16 -10z"/>
<path d="M6840 599 c0 -5 5 -7 10 -4 6 3 10 8 10 11 0 2 -4 4 -10 4 -5 0 -10
-5 -10 -11z"/>
<path d="M2660 590 c-13 -8 -12 -10 3 -10 9 0 17 5 17 10 0 12 -1 12 -20 0z"/>
<path d="M2632 570 c0 -14 2 -19 5 -12 2 6 2 18 0 25 -3 6 -5 1 -5 -13z"/>
<path d="M6472 581 c-11 -7 -11 -9 2 -14 10 -4 16 -1 16 8 0 17 -1 17 -18 6z"/>
<path d="M6560 575 c0 -8 5 -15 10 -15 6 0 10 7 10 15 0 8 -4 15 -10 15 -5 0
-10 -7 -10 -15z"/>
<path d="M1840 565 c0 -8 5 -15 10 -15 6 0 10 7 10 15 0 8 -4 15 -10 15 -5 0
-10 -7 -10 -15z"/>
<path d="M6654 563 c4 -9 1 -20 -6 -25 -10 -6 -10 -8 0 -8 18 0 15 -37 -4 -44
-15 -6 -15 -8 1 -26 16 -18 16 -20 1 -26 -13 -5 -14 -9 -5 -20 9 -12 8 -17 -5
-27 -22 -16 -18 -56 6 -71 14 -8 21 -6 33 9 14 18 16 18 25 4 9 -15 13 -15 45
-1 37 17 42 39 9 35 -10 -1 -13 0 -6 3 17 8 15 19 -12 63 -15 23 -32 38 -43
37 -9 0 -19 7 -21 17 -3 14 1 17 20 12 17 -4 28 2 42 22 11 14 14 23 7 19 -6
-4 -25 -9 -42 -11 -30 -4 -31 -3 -25 25 4 23 2 30 -10 30 -11 0 -14 -5 -10
-17z m-6 -228 c-3 -3 -9 2 -12 12 -6 14 -5 15 5 6 7 -7 10 -15 7 -18z"/>
<path d="M7073 570 c21 -13 23 -40 2 -40 -8 0 -15 -4 -15 -8 0 -18 13 -20 36
-5 13 8 24 11 24 7 0 -5 4 -2 10 6 5 8 12 12 15 8 3 -3 -1 -13 -10 -21 -22
-23 -19 -27 20 -27 19 0 35 -4 35 -10 0 -5 -16 -10 -35 -10 -19 0 -35 5 -35
10 0 6 -9 10 -20 10 -13 0 -20 -7 -20 -19 0 -15 -5 -18 -22 -13 -18 4 -20 2
-15 -19 4 -13 7 -27 7 -31 0 -4 16 -15 35 -24 34 -16 52 -50 20 -38 -18 7 -19
0 -4 -28 11 -20 11 -20 23 3 15 30 42 33 134 16 72 -14 101 -8 63 12 -11 6
-39 11 -63 11 -41 0 -42 0 -20 16 28 19 28 31 1 39 -14 5 -18 10 -11 17 14 14
61 -21 62 -46 0 -15 6 -17 38 -12 26 4 31 3 17 -4 -16 -7 -16 -9 -4 -9 9 -1
22 -8 29 -16 9 -11 16 -12 26 -4 8 6 22 7 36 3 13 -4 26 -7 31 -6 4 1 7 -2 7
-8 0 -6 9 -6 24 0 16 6 29 5 41 -4 16 -12 16 -13 2 -19 -9 -3 -19 -2 -22 3
-11 17 -20 11 -32 -20 -12 -31 2 -55 17 -31 4 8 19 10 42 6 30 -6 34 -10 31
-30 -6 -30 14 -41 36 -21 10 9 25 14 33 11 24 -9 37 17 41 83 l5 61 -46 7
c-39 6 -43 8 -24 15 25 9 26 13 12 38 -8 17 -30 24 -105 37 -91 16 -348 75
-375 86 -48 20 -101 32 -77 18z m137 -60 c-19 -13 -30 -13 -30 0 0 6 10 10 23
10 18 0 19 -2 7 -10z m50 -30 c13 -9 13 -10 0 -9 -8 1 -26 5 -40 9 l-25 8 25
1 c14 0 32 -4 40 -9z m393 -147 c-7 -2 -19 -2 -25 0 -7 3 -2 5 12 5 14 0 19
-2 13 -5z"/>
<path d="M1897 563 c-4 -3 -7 -13 -7 -21 0 -11 8 -13 33 -8 30 6 31 6 12 -8
-22 -15 -95 -18 -95 -4 0 4 -6 8 -14 8 -11 0 -13 -9 -9 -37 3 -21 10 -39 15
-41 12 -5 10 -40 -3 -44 -15 -5 10 -58 28 -58 17 0 17 -15 -2 -34 -8 -8 -15
-18 -15 -22 0 -4 -8 -13 -17 -20 -16 -12 -16 -15 -3 -23 10 -7 16 -7 18 -1 2
6 11 10 20 10 17 0 46 52 58 103 5 20 11 26 22 22 12 -4 11 -1 -4 16 -10 12
-13 19 -6 15 8 -5 21 -2 30 7 9 8 24 17 32 19 8 3 -4 8 -27 12 -48 9 -56 22
-18 32 14 3 25 12 25 19 0 7 2 19 5 27 3 7 1 19 -4 27 -8 12 -12 12 -25 2 -11
-9 -16 -10 -16 -2 0 12 -23 15 -33 4z"/>
<path d="M2000 560 c0 -5 14 -10 32 -10 36 0 35 4 -4 14 -17 4 -28 2 -28 -4z"/>
<path d="M2905 561 c-3 -5 2 -16 10 -24 8 -9 15 -20 15 -26 0 -6 5 -11 10 -11
6 0 10 6 10 13 0 6 3 22 6 35 5 19 2 22 -19 22 -14 0 -28 -4 -32 -9z"/>
<path d="M3500 560 c0 -5 5 -10 10 -10 6 0 10 5 10 10 0 6 -4 10 -10 10 -5 0
-10 -4 -10 -10z"/>
<path d="M6925 560 c3 -5 8 -10 11 -10 2 0 4 5 4 10 0 6 -5 10 -11 10 -5 0 -7
-4 -4 -10z"/>
<path d="M7020 560 c0 -5 -7 -10 -17 -10 -9 0 -14 -2 -11 -5 8 -9 58 6 58 16
0 5 -7 9 -15 9 -8 0 -15 -4 -15 -10z"/>
<path d="M2560 550 c0 -5 7 -10 16 -10 8 0 12 5 9 10 -3 6 -10 10 -16 10 -5 0
-9 -4 -9 -10z"/>
<path d="M3700 549 c0 -5 5 -7 10 -4 6 3 10 8 10 11 0 2 -4 4 -10 4 -5 0 -10
-5 -10 -11z"/>
<path d="M6880 550 c0 -9 39 -25 45 -18 2 2 -7 8 -21 15 -13 6 -24 7 -24 3z"/>
<path d="M1113 535 c4 -9 7 -19 7 -21 0 -9 39 -3 45 6 4 6 15 8 26 5 11 -4 19
-2 19 5 0 8 -11 11 -32 7 -18 -2 -42 0 -52 5 -16 9 -18 7 -13 -7z"/>
<path d="M4660 540 c0 -5 7 -10 16 -10 8 0 12 5 9 10 -3 6 -10 10 -16 10 -5 0
-9 -4 -9 -10z"/>
<path d="M4830 525 c-24 -13 -24 -14 -4 -15 12 0 27 7 34 15 16 19 3 19 -30 0z"/>
<path d="M2482 512 c-13 -10 -20 -21 -16 -25 4 -4 15 3 25 15 29 33 26 37 -9
10z"/>
<path d="M6610 510 c0 -5 5 -10 11 -10 5 0 7 5 4 10 -3 6 -8 10 -11 10 -2 0
-4 -4 -4 -10z"/>
<path d="M1205 500 c3 -5 8 -10 11 -10 2 0 4 5 4 10 0 6 -5 10 -11 10 -5 0 -7
-4 -4 -10z"/>
<path d="M2010 500 c0 -5 7 -10 15 -10 8 0 15 5 15 10 0 6 -7 10 -15 10 -8 0
-15 -4 -15 -10z"/>
<path d="M2533 503 c-26 -5 -29 -20 -9 -45 21 -28 34 -21 33 17 -1 19 -1 34
-1 34 -1 -1 -11 -4 -23 -6z"/>
<path d="M6947 476 c-9 -10 -21 -15 -26 -12 -5 3 -12 -1 -15 -10 -9 -24 -7
-28 8 -15 7 6 21 9 30 5 17 -6 31 16 24 37 -3 8 -9 6 -21 -5z"/>
<path d="M2631 464 c0 -11 3 -14 6 -6 3 7 2 16 -1 19 -3 4 -6 -2 -5 -13z"/>
<path d="M7010 464 c0 -17 22 -14 28 4 2 7 -3 12 -12 12 -9 0 -16 -7 -16 -16z"/>
<path d="M3905 460 c-3 -5 -1 -10 4 -10 6 0 11 5 11 10 0 6 -2 10 -4 10 -3 0
-8 -4 -11 -10z"/>
<path d="M2480 430 c0 -13 5 -20 13 -17 6 2 12 10 12 17 0 7 -6 15 -12 18 -8
2 -13 -5 -13 -18z"/>
<path d="M4695 440 c-3 -5 -1 -10 4 -10 6 0 11 5 11 10 0 6 -2 10 -4 10 -3 0
-8 -4 -11 -10z"/>
<path d="M7660 430 c0 -5 9 -10 20 -10 11 0 20 5 20 10 0 6 -9 10 -20 10 -11
0 -20 -4 -20 -10z"/>
<path d="M2792 410 c7 -11 18 -20 25 -20 9 0 7 6 -4 20 -10 11 -21 20 -25 20
-5 0 -3 -9 4 -20z"/>
<path d="M3905 420 c-3 -5 -2 -10 4 -10 5 0 13 5 16 10 3 6 2 10 -4 10 -5 0
-13 -4 -16 -10z"/>
<path d="M2025 410 c-4 -6 -3 -16 3 -22 6 -6 12 -6 17 2 4 6 3 16 -3 22 -6 6
-12 6 -17 -2z"/>
<path d="M2597 414 c-8 -8 3 -34 14 -34 11 0 12 27 0 34 -4 3 -11 3 -14 0z"/>
<path d="M2720 406 c0 -9 5 -16 10 -16 6 0 10 4 10 9 0 6 -4 13 -10 16 -5 3
-10 -1 -10 -9z"/>
<path d="M2960 410 c0 -5 7 -10 15 -10 8 0 15 5 15 10 0 6 -7 10 -15 10 -8 0
-15 -4 -15 -10z"/>
<path d="M6973 413 c-17 -6 -16 -23 1 -23 12 0 26 -20 26 -36 0 -2 -10 -4 -22
-5 -13 0 -17 -3 -10 -6 6 -2 12 -11 12 -18 0 -8 8 -21 18 -31 16 -17 16 -17
-8 -10 -14 4 -34 9 -45 11 -11 1 -19 8 -17 14 1 6 3 16 5 23 1 6 -6 13 -15 15
-12 3 -15 -1 -11 -16 4 -15 -1 -23 -18 -30 l-24 -10 27 0 c33 -1 44 -17 27
-37 -11 -14 -9 -16 16 -14 47 3 55 1 49 -15 -4 -9 0 -15 8 -15 24 0 68 -24 68
-37 0 -8 13 -13 32 -13 17 0 40 -8 50 -17 16 -14 23 -15 53 -4 29 10 38 10 57
-3 46 -32 77 -7 81 64 1 14 6 28 11 31 13 10 -1 42 -16 37 -6 -2 -20 4 -31 15
-15 15 -27 18 -55 12 -21 -3 -51 -6 -69 -6 -23 -1 -32 -6 -36 -21 -7 -25 -28
-19 -43 11 -14 27 -61 55 -67 38 -4 -14 -27 1 -27 18 0 8 11 17 25 21 14 3 25
10 25 16 0 5 -4 6 -10 3 -5 -3 -10 -3 -10 2 -1 13 -44 40 -57 36z m77 -193 c0
-5 -5 -10 -11 -10 -5 0 -7 5 -4 10 3 6 8 10 11 10 2 0 4 -4 4 -10z m252 -75
c0 -5 -5 -11 -11 -13 -6 -2 -11 4 -11 13 0 9 5 15 11 13 6 -2 11 -8 11 -13z"/>
<path d="M2512 386 c2 -16 9 -31 17 -34 10 -3 11 2 6 19 -12 39 -27 48 -23 15z"/>
<path d="M2870 402 c0 -7 -7 -12 -15 -12 -8 0 -15 -4 -15 -10 0 -16 27 -11 34
6 4 9 4 19 1 22 -3 3 -5 0 -5 -6z"/>
<path d="M3032 395 c-7 -8 -11 -15 -10 -16 15 -4 58 -3 58 1 0 8 -22 30 -29
30 -4 -1 -12 -7 -19 -15z"/>
<path d="M4506 403 c-11 -11 -6 -23 9 -23 8 0 15 4 15 9 0 13 -16 22 -24 14z"/>
<path d="M6817 376 c-6 -15 1 -26 15 -26 11 0 10 27 -1 34 -5 3 -11 0 -14 -8z"/>
<path d="M1754 355 c5 -18 2 -25 -9 -25 -8 0 -15 -4 -15 -10 0 -13 11 -12 33
4 21 17 22 42 1 50 -13 5 -15 1 -10 -19z"/>
<path d="M2948 358 c-10 -10 -29 -18 -43 -18 -27 0 -35 -24 -10 -34 22 -8 83
36 76 55 -5 13 -9 12 -23 -3z"/>
<path d="M7834 373 c-7 -2 -10 -12 -7 -22 3 -11 -6 -29 -22 -45 -30 -30 -25
-33 15 -9 30 17 44 48 32 68 -4 7 -12 10 -18 8z"/>
<path d="M1303 363 c-16 -6 -17 -29 -2 -38 10 -7 38 21 39 38 0 8 -18 8 -37 0z"/>
<path d="M1800 340 c0 -23 4 -30 20 -30 22 0 23 3 14 38 -9 33 -34 28 -34 -8z"/>
<path d="M2640 361 c0 -5 -10 -7 -22 -3 -14 3 -19 2 -14 -6 10 -17 53 -15 60
3 3 9 0 15 -9 15 -8 0 -15 -4 -15 -9z"/>
<path d="M2778 363 c7 -3 16 -2 19 1 4 3 -2 6 -13 5 -11 0 -14 -3 -6 -6z"/>
<path d="M4020 360 c0 -5 4 -10 9 -10 6 0 13 5 16 10 3 6 -1 10 -9 10 -9 0
-16 -4 -16 -10z"/>
<path d="M1930 345 c0 -8 7 -15 15 -15 8 0 15 4 15 9 0 5 -7 11 -15 15 -9 3
-15 0 -15 -9z"/>
<path d="M7765 340 c-3 -5 1 -10 10 -10 9 0 13 5 10 10 -3 6 -8 10 -10 10 -2
0 -7 -4 -10 -10z"/>
<path d="M2546 307 c-3 -17 -9 -45 -12 -61 -5 -20 -4 -27 5 -22 6 4 11 15 11
26 0 14 5 17 23 12 20 -5 21 -4 7 13 -13 17 -13 18 0 11 8 -4 7 -1 -4 8 -10 8
-15 19 -12 25 4 5 2 12 -3 15 -4 3 -11 -9 -15 -27z"/>
<path d="M4300 321 c0 -6 5 -13 10 -16 20 -12 -3 -27 -31 -21 -34 6 -38 -6 -8
-25 16 -11 19 -20 14 -42 -4 -15 -11 -27 -16 -27 -5 0 -18 -8 -29 -17 -22 -19
-26 -53 -8 -71 9 -9 8 -12 -6 -12 -11 0 -24 7 -31 16 -10 15 -14 13 -34 -15
-15 -20 -20 -38 -16 -49 7 -14 9 -13 15 8 5 14 8 20 9 14 1 -6 15 -14 31 -17
43 -9 37 -24 -12 -36 -37 -8 -31 -9 42 -6 86 3 187 19 199 30 3 4 -2 11 -12
16 -10 6 -17 22 -17 40 l0 31 -31 -26 c-38 -33 -57 -33 -65 -1 -7 29 -22 33
-31 9 -6 -15 -8 -15 -20 2 -18 25 -16 41 7 47 11 3 20 12 20 21 0 9 5 16 10
16 6 0 10 13 10 29 0 31 24 59 35 41 9 -15 25 -12 25 5 0 8 -5 15 -10 15 -6 0
-8 11 -4 25 5 22 3 25 -20 25 -14 0 -26 -4 -26 -9z"/>
<path d="M7160 313 c0 -10 6 -13 16 -9 9 3 25 6 36 6 32 0 11 14 -23 16 -20 1
-29 -3 -29 -13z"/>
<path d="M1411 298 c-19 -20 -25 -21 -53 -10 -19 7 -36 8 -41 3 -14 -14 4 -19
73 -22 62 -3 65 -2 65 21 0 32 -19 36 -44 8z"/>
<path d="M2984 294 c7 -19 -27 -37 -42 -22 -9 9 -12 8 -12 -5 0 -18 35 -24 45
-7 3 6 19 10 34 10 30 0 77 28 51 31 -75 7 -81 6 -76 -7z"/>
<path d="M1715 290 c-3 -5 -2 -10 4 -10 5 0 13 5 16 10 3 6 2 10 -4 10 -5 0
-13 -4 -16 -10z"/>
<path d="M7318 293 c7 -3 16 -2 19 1 4 3 -2 6 -13 5 -11 0 -14 -3 -6 -6z"/>
<path d="M7710 285 c-7 -9 -10 -18 -7 -21 10 -11 37 5 37 21 0 19 -14 19 -30
0z"/>
<path d="M7948 293 c7 -3 16 -2 19 1 4 3 -2 6 -13 5 -11 0 -14 -3 -6 -6z"/>
<path d="M4120 280 c0 -5 5 -10 10 -10 6 0 10 5 10 10 0 6 -4 10 -10 10 -5 0
-10 -4 -10 -10z"/>
<path d="M4222 270 c-6 -11 -23 -22 -37 -26 -30 -7 -31 -18 -6 -46 15 -15 27
-19 46 -14 17 4 25 12 22 20 -3 8 -2 17 2 22 5 5 3 21 -3 36 -11 26 -12 26
-24 8z"/>
<path d="M1975 270 c-3 -5 1 -10 9 -10 9 0 16 5 16 10 0 6 -4 10 -9 10 -6 0
-13 -4 -16 -10z"/>
<path d="M2820 255 c0 -8 5 -15 10 -15 6 0 10 7 10 15 0 8 -4 15 -10 15 -5 0
-10 -7 -10 -15z"/>
<path d="M1728 251 c-20 -4 -25 -10 -19 -20 5 -7 15 -11 22 -9 8 3 26 1 42 -3
15 -4 27 -4 27 1 0 11 -29 40 -38 39 -4 -1 -19 -4 -34 -8z"/>
<path d="M3103 253 c-17 -3 -22 -11 -21 -30 2 -13 10 -29 20 -34 21 -11 31 2
21 28 -5 14 -4 16 8 7 10 -8 27 -7 62 3 27 8 47 17 44 19 -6 7 -109 12 -134 7z"/>
<path d="M3045 240 c-3 -5 -1 -10 4 -10 6 0 11 5 11 10 0 6 -2 10 -4 10 -3 0
-8 -4 -11 -10z"/>
<path d="M7778 243 c-10 -2 -18 -11 -18 -20 0 -12 7 -14 31 -9 17 3 36 6 41 6
6 0 5 7 -2 15 -13 15 -21 16 -52 8z"/>
<path d="M7985 240 c3 -5 8 -10 11 -10 2 0 4 5 4 10 0 6 -5 10 -11 10 -5 0 -7
-4 -4 -10z"/>
<path d="M2787 224 c-8 -14 8 -37 22 -33 8 3 8 10 -2 23 -8 11 -17 15 -20 10z"/>
<path d="M7520 220 c0 -5 7 -10 16 -10 8 0 12 5 9 10 -3 6 -10 10 -16 10 -5 0
-9 -4 -9 -10z"/>
<path d="M7400 209 c0 -5 5 -7 10 -4 6 3 10 8 10 11 0 2 -4 4 -10 4 -5 0 -10
-5 -10 -11z"/>
<path d="M1433 195 c-3 -9 -3 -19 1 -22 3 -4 6 1 6 10 0 8 10 18 23 20 l22 4
-23 2 c-12 0 -25 -6 -29 -14z"/>
<path d="M3296 193 c-11 -11 -6 -23 9 -23 8 0 15 4 15 9 0 13 -16 22 -24 14z"/>
<path d="M4340 183 c-15 -10 -19 -10 -23 0 -3 6 -4 -2 -4 -20 1 -20 6 -28 12
-22 13 13 52 11 58 -3 4 -10 8 -10 16 1 8 12 16 13 45 4 20 -6 36 -7 36 -2 0
5 5 9 11 9 5 0 7 -5 3 -12 -4 -7 -3 -8 4 -4 7 4 12 16 12 26 0 14 -9 21 -32
24 -73 12 -121 11 -138 -1z"/>
<path d="M7905 190 c-3 -5 -1 -10 4 -10 6 0 11 5 11 10 0 6 -2 10 -4 10 -3 0
-8 -4 -11 -10z"/>
<path d="M1570 175 c-7 -8 -21 -15 -31 -15 -30 0 -22 -18 9 -22 23 -3 27 -7
26 -35 -1 -25 2 -31 16 -30 15 1 16 6 9 25 -6 15 -5 21 1 17 14 -9 12 9 -2 23
-10 10 -8 14 10 19 21 5 21 6 5 19 -23 17 -28 17 -43 -1z"/>
<path d="M7850 170 c0 -5 7 -10 16 -10 8 0 12 5 9 10 -3 6 -10 10 -16 10 -5 0
-9 -4 -9 -10z"/>
<path d="M7920 156 c0 -9 5 -16 10 -16 6 0 10 4 10 9 0 6 -4 13 -10 16 -5 3
-10 -1 -10 -9z"/>
<path d="M1457 154 c-13 -13 -7 -24 14 -24 11 0 19 5 17 12 -5 14 -22 21 -31
12z"/>
<path d="M4148 133 c7 -3 16 -2 19 1 4 3 -2 6 -13 5 -11 0 -14 -3 -6 -6z"/>
<path d="M1815 110 c-4 -6 5 -10 19 -10 14 0 26 5 26 10 0 6 -9 10 -19 10 -11
0 -23 -4 -26 -10z"/>
<path d="M4430 84 c0 -14 4 -23 10 -19 6 3 10 15 10 26 0 10 -4 19 -10 19 -5
0 -10 -12 -10 -26z"/>
<path d="M4541 91 c-10 -6 -10 -10 -1 -16 13 -8 24 -1 19 14 -3 6 -10 7 -18 2z"/>
<path d="M7746 85 c8 -19 14 -19 14 0 0 8 -4 15 -10 15 -5 0 -7 -7 -4 -15z"/>
<path d="M1436 78 c7 -12 44 -10 44 2 0 5 -11 9 -24 8 -14 -1 -22 -6 -20 -10z"/>
<path d="M1530 80 c0 -5 5 -10 10 -10 6 0 10 5 10 10 0 6 -4 10 -10 10 -5 0
-10 -4 -10 -10z"/>
<path d="M4630 70 c0 -5 5 -10 11 -10 5 0 7 5 4 10 -3 6 -8 10 -11 10 -2 0 -4
-4 -4 -10z"/>
<path d="M1680 59 c0 -10 13 -14 40 -14 22 -1 40 3 40 7 0 4 -8 8 -17 8 -10 0
-28 3 -40 6 -16 4 -23 2 -23 -7z"/>
<path d="M4473 33 c-14 -5 -18 -33 -5 -33 4 0 14 5 22 10 17 11 2 30 -17 23z"/>
<path d="M3377 24 c-13 -13 -7 -24 14 -24 11 0 19 5 17 12 -5 14 -22 21 -31
12z"/>
<path d="M3335 10 c-3 -5 1 -10 9 -10 9 0 16 5 16 10 0 6 -4 10 -9 10 -6 0
-13 -4 -16 -10z"/>
</g>
</svg>
